<?xml version="1.0" encoding="us-ascii" standalone="no"?><svg xmlns="http://www.w3.org/2000/svg" xmlns:xlink="http://www.w3.org/1999/xlink" contentStyleType="text/css" height="754px" preserveAspectRatio="none" style="width:1724px;height:754px;background:#FFFFFF;" version="1.1" viewBox="0 0 1724 754" width="1724px" zoomAndPan="magnify"><defs/><g><rect fill="#FFFFFF" height="626.3516" style="stroke:#181818;stroke-width:1.0;" width="10" x="446.5" y="112.4297"/><rect fill="#FFFFFF" height="565.0859" style="stroke:#181818;stroke-width:1.0;" width="10" x="451.5" y="173.6953"/><rect fill="#FFFFFF" height="492.8203" style="stroke:#181818;stroke-width:1.0;" width="10" x="456.5" y="245.9609"/><rect fill="#FFFFFF" height="25" style="stroke:#181818;stroke-width:1.0;" width="10" x="461.5" y="307.2266"/><rect fill="#FFFFFF" height="264.8281" style="stroke:#181818;stroke-width:1.0;" width="10" x="461.5" y="473.9531"/><rect fill="#FFFFFF" height="221.6953" style="stroke:#181818;stroke-width:1.0;" width="10" x="466.5" y="517.0859"/><rect fill="#FFFFFF" height="123.2656" style="stroke:#181818;stroke-width:1.0;" width="10" x="471.5" y="615.5156"/><rect fill="#FFFFFF" height="80.1328" style="stroke:#181818;stroke-width:1.0;" width="10" x="476.5" y="658.6484"/><rect fill="#FFFFFF" height="37" style="stroke:#181818;stroke-width:1.0;" width="10" x="481.5" y="701.7813"/><rect fill="#FFFFFF" height="336.2891" style="stroke:#181818;stroke-width:1.0;" width="10" x="869.5" y="402.4922"/><rect fill="#FFFFFF" height="16.1641" style="stroke:#181818;stroke-width:1.0;" width="10" x="1344.5" y="443.7891"/><rect fill="#FFFFFF" height="16.1641" style="stroke:#181818;stroke-width:1.0;" width="10" x="1538.5" y="556.2188"/><rect fill="none" height="603.3516" style="stroke:#000000;stroke-width:1.5;" width="1353.5" x="365" y="127.4297"/><rect fill="none" height="530.0859" style="stroke:#000000;stroke-width:1.5;" width="1333.5" x="375" y="193.6953"/><rect fill="none" height="455.8203" style="stroke:#000000;stroke-width:1.5;" width="1313.5" x="385" y="260.9609"/><rect fill="none" height="355.5547" style="stroke:#000000;stroke-width:1.5;" width="1293.5" x="395" y="354.2266"/><line style="stroke:#181818;stroke-width:0.5;stroke-dasharray:5.0,5.0;" x1="44" x2="44" y1="81.2969" y2="747.7813"/><line style="stroke:#181818;stroke-width:0.5;stroke-dasharray:5.0,5.0;" x1="451" x2="451" y1="81.2969" y2="747.7813"/><line style="stroke:#181818;stroke-width:0.5;stroke-dasharray:5.0,5.0;" x1="761.5" x2="761.5" y1="81.2969" y2="747.7813"/><line style="stroke:#181818;stroke-width:0.5;stroke-dasharray:5.0,5.0;" x1="874" x2="874" y1="402.0078" y2="747.7813"/><line style="stroke:#181818;stroke-width:0.5;stroke-dasharray:5.0,5.0;" x1="1349.5" x2="1349.5" y1="443.3047" y2="747.7813"/><line style="stroke:#181818;stroke-width:0.5;stroke-dasharray:5.0,5.0;" x1="1543.5" x2="1543.5" y1="555.7344" y2="747.7813"/><text fill="#000000" font-family="sans-serif" font-size="14" lengthAdjust="spacing" text-decoration="underline" textLength="73" x="5" y="77.9951">:Utilisateur</text><ellipse cx="44.5" cy="13.5" fill="#FFFFFF" rx="8" ry="8" style="stroke:#181818;stroke-width:0.5;"/><path d="M44.5,21.5 L44.5,48.5 M31.5,29.5 L57.5,29.5 M44.5,48.5 L31.5,63.5 M44.5,48.5 L57.5,63.5 " fill="none" style="stroke:#181818;stroke-width:0.5;"/><rect fill="#FFFFFF" height="30.2969" rx="2.5" ry="2.5" style="stroke:#181818;stroke-width:0.5;" width="93" x="405" y="50"/><text fill="#000000" font-family="sans-serif" font-size="14" lengthAdjust="spacing" text-decoration="underline" textLength="79" x="412" y="69.9951">m:MiniSocs</text><rect fill="#FFFFFF" height="30.2969" rx="2.5" ry="2.5" style="stroke:#181818;stroke-width:0.5;" width="96" x="713.5" y="50"/><text fill="#000000" font-family="sans-serif" font-size="14" lengthAdjust="spacing" text-decoration="underline" textLength="82" x="720.5" y="69.9951">u:Utilisateur</text><rect fill="#FFFFFF" height="626.3516" style="stroke:#181818;stroke-width:1.0;" width="10" x="446.5" y="112.4297"/><rect fill="#FFFFFF" height="565.0859" style="stroke:#181818;stroke-width:1.0;" width="10" x="451.5" y="173.6953"/><rect fill="#FFFFFF" height="492.8203" style="stroke:#181818;stroke-width:1.0;" width="10" x="456.5" y="245.9609"/><rect fill="#FFFFFF" height="25" style="stroke:#181818;stroke-width:1.0;" width="10" x="461.5" y="307.2266"/><rect fill="#FFFFFF" height="264.8281" style="stroke:#181818;stroke-width:1.0;" width="10" x="461.5" y="473.9531"/><rect fill="#FFFFFF" height="221.6953" style="stroke:#181818;stroke-width:1.0;" width="10" x="466.5" y="517.0859"/><rect fill="#FFFFFF" height="123.2656" style="stroke:#181818;stroke-width:1.0;" width="10" x="471.5" y="615.5156"/><rect fill="#FFFFFF" height="80.1328" style="stroke:#181818;stroke-width:1.0;" width="10" x="476.5" y="658.6484"/><rect fill="#FFFFFF" height="37" style="stroke:#181818;stroke-width:1.0;" width="10" x="481.5" y="701.7813"/><rect fill="#FFFFFF" height="336.2891" style="stroke:#181818;stroke-width:1.0;" width="10" x="869.5" y="402.4922"/><rect fill="#FFFFFF" height="16.1641" style="stroke:#181818;stroke-width:1.0;" width="10" x="1344.5" y="443.7891"/><rect fill="#FFFFFF" height="16.1641" style="stroke:#181818;stroke-width:1.0;" width="10" x="1538.5" y="556.2188"/><polygon fill="#181818" points="434.5,108.4297,444.5,112.4297,434.5,116.4297,438.5,112.4297" style="stroke:#181818;stroke-width:1.0;"/><line style="stroke:#181818;stroke-width:1.0;" x1="44.5" x2="440.5" y1="112.4297" y2="112.4297"/><text fill="#000000" font-family="sans-serif" font-size="13" lengthAdjust="spacing" textLength="383" x="51.5" y="107.3638">Cr&#233;erR&#233;seau(nom_R&#233;seau, pseudonyme, pseudo_membre)</text><path d="M365,127.4297 L435,127.4297 L435,134.5625 L425,144.5625 L365,144.5625 L365,127.4297 " fill="#EEEEEE" style="stroke:#000000;stroke-width:1.5;"/><rect fill="none" height="603.3516" style="stroke:#000000;stroke-width:1.5;" width="1353.5" x="365" y="127.4297"/><text fill="#000000" font-family="sans-serif" font-size="13" font-weight="bold" lengthAdjust="spacing" textLength="25" x="380" y="140.4966">opt</text><text fill="#000000" font-family="sans-serif" font-size="11" font-weight="bold" lengthAdjust="spacing" textLength="709" x="450" y="139.6401">[pseudonyme (non null &#8743; non vide)&#8743; pseudo_membre (non null &#8743; non vide)&#8743; nomReseau (non null &#8743; non vide)]</text><line style="stroke:#181818;stroke-width:1.0;" x1="456.5" x2="503.5" y1="160.6953" y2="160.6953"/><line style="stroke:#181818;stroke-width:1.0;" x1="503.5" x2="503.5" y1="160.6953" y2="173.6953"/><line style="stroke:#181818;stroke-width:1.0;" x1="462.5" x2="503.5" y1="173.6953" y2="173.6953"/><polygon fill="#181818" points="472.5,169.6953,462.5,173.6953,472.5,177.6953,468.5,173.6953" style="stroke:#181818;stroke-width:1.0;"/><text fill="#000000" font-family="sans-serif" font-size="13" lengthAdjust="spacing" textLength="241" x="468.5" y="155.6294">u=chercher(pseudonyme) :Utilisateur</text><path d="M375,193.6953 L445,193.6953 L445,200.8281 L435,210.8281 L375,210.8281 L375,193.6953 " fill="#EEEEEE" style="stroke:#000000;stroke-width:1.5;"/><rect fill="none" height="530.0859" style="stroke:#000000;stroke-width:1.5;" width="1333.5" x="375" y="193.6953"/><text fill="#000000" font-family="sans-serif" font-size="13" font-weight="bold" lengthAdjust="spacing" textLength="25" x="390" y="206.7622">opt</text><text fill="#000000" font-family="sans-serif" font-size="11" font-weight="bold" lengthAdjust="spacing" textLength="60" x="460" y="205.9058">[u !=null]</text><polygon fill="#181818" points="749.5,227.9609,759.5,231.9609,749.5,235.9609,753.5,231.9609" style="stroke:#181818;stroke-width:1.0;"/><line style="stroke:#181818;stroke-width:1.0;" x1="461.5" x2="755.5" y1="231.9609" y2="231.9609"/><text fill="#000000" font-family="sans-serif" font-size="13" lengthAdjust="spacing" textLength="228" x="468.5" y="226.895">ChercherEtatCompte(pseudonyme)</text><polygon fill="#181818" points="477.5,241.9609,467.5,245.9609,477.5,249.9609,473.5,245.9609" style="stroke:#181818;stroke-width:1.0;"/><line style="stroke:#181818;stroke-width:1.0;stroke-dasharray:2.0,2.0;" x1="471.5" x2="760.5" y1="245.9609" y2="245.9609"/><path d="M385,260.9609 L455,260.9609 L455,268.0938 L445,278.0938 L385,278.0938 L385,260.9609 " fill="#EEEEEE" style="stroke:#000000;stroke-width:1.5;"/><rect fill="none" height="455.8203" style="stroke:#000000;stroke-width:1.5;" width="1313.5" x="385" y="260.9609"/><text fill="#000000" font-family="sans-serif" font-size="13" font-weight="bold" lengthAdjust="spacing" textLength="25" x="400" y="274.0278">opt</text><text fill="#000000" font-family="sans-serif" font-size="11" font-weight="bold" lengthAdjust="spacing" textLength="140" x="470" y="273.1714">[EtatCompte==ACTIF]</text><line style="stroke:#181818;stroke-width:1.0;" x1="466.5" x2="513.5" y1="294.2266" y2="294.2266"/><line style="stroke:#181818;stroke-width:1.0;" x1="513.5" x2="513.5" y1="294.2266" y2="307.2266"/><line style="stroke:#181818;stroke-width:1.0;" x1="472.5" x2="513.5" y1="307.2266" y2="307.2266"/><polygon fill="#181818" points="482.5,303.2266,472.5,307.2266,482.5,311.2266,478.5,307.2266" style="stroke:#181818;stroke-width:1.0;"/><text fill="#000000" font-family="sans-serif" font-size="13" lengthAdjust="spacing" textLength="263" x="478.5" y="289.1606">r=chercherR&#233;seau(nom_R&#233;seau):R&#233;seau</text><line style="stroke:#181818;stroke-width:1.0;stroke-dasharray:2.0,2.0;" x1="471.5" x2="513.5" y1="331.2266" y2="331.2266"/><line style="stroke:#181818;stroke-width:1.0;stroke-dasharray:2.0,2.0;" x1="513.5" x2="513.5" y1="331.2266" y2="344.2266"/><line style="stroke:#181818;stroke-width:1.0;stroke-dasharray:2.0,2.0;" x1="466.5" x2="513.5" y1="344.2266" y2="344.2266"/><polygon fill="#181818" points="476.5,340.2266,466.5,344.2266,476.5,348.2266,472.5,344.2266" style="stroke:#181818;stroke-width:1.0;"/><path d="M395,354.2266 L465,354.2266 L465,361.3594 L455,371.3594 L395,371.3594 L395,354.2266 " fill="#EEEEEE" style="stroke:#000000;stroke-width:1.5;"/><rect fill="none" height="355.5547" style="stroke:#000000;stroke-width:1.5;" width="1293.5" x="395" y="354.2266"/><text fill="#000000" font-family="sans-serif" font-size="13" font-weight="bold" lengthAdjust="spacing" textLength="25" x="410" y="367.2935">opt</text><text fill="#000000" font-family="sans-serif" font-size="11" font-weight="bold" lengthAdjust="spacing" textLength="65" x="480" y="366.437">[r == null]</text><polygon fill="#181818" points="824,388.4922,834,392.4922,824,396.4922,828,392.4922" style="stroke:#181818;stroke-width:1.0;"/><line style="stroke:#181818;stroke-width:1.0;" x1="466.5" x2="830" y1="392.4922" y2="392.4922"/><text fill="#000000" font-family="sans-serif" font-size="13" lengthAdjust="spacing" textLength="283" x="473.5" y="387.4263">r=&#171;create(nom_R&#233;seau, pseudo_membre)&#187;</text><rect fill="#FFFFFF" height="30.2969" rx="2.5" ry="2.5" style="stroke:#181818;stroke-width:0.5;" width="77" x="836" y="371.3594"/><text fill="#000000" font-family="sans-serif" font-size="14" lengthAdjust="spacing" text-decoration="underline" textLength="63" x="843" y="391.3545">r:R&#233;seau</text><polygon fill="#181818" points="1288.5,429.7891,1298.5,433.7891,1288.5,437.7891,1292.5,433.7891" style="stroke:#181818;stroke-width:1.0;"/><line style="stroke:#181818;stroke-width:1.0;" x1="879.5" x2="1294.5" y1="433.7891" y2="433.7891"/><text fill="#000000" font-family="sans-serif" font-size="13" lengthAdjust="spacing" textLength="397" x="886.5" y="428.7231">m1 =&#171;create(pseudo_membre, etatMembre==mod&#233;rateur)&#187;</text><rect fill="#FFFFFF" height="30.2969" rx="2.5" ry="2.5" style="stroke:#181818;stroke-width:0.5;" width="98" x="1300.5" y="412.6563"/><text fill="#000000" font-family="sans-serif" font-size="14" lengthAdjust="spacing" text-decoration="underline" textLength="84" x="1307.5" y="432.6514">m1:Membre</text><polygon fill="#181818" points="890.5,455.9531,880.5,459.9531,890.5,463.9531,886.5,459.9531" style="stroke:#181818;stroke-width:1.0;"/><line style="stroke:#181818;stroke-width:1.0;stroke-dasharray:2.0,2.0;" x1="884.5" x2="1348.5" y1="459.9531" y2="459.9531"/><polygon fill="#181818" points="482.5,469.9531,472.5,473.9531,482.5,477.9531,478.5,473.9531" style="stroke:#181818;stroke-width:1.0;"/><line style="stroke:#181818;stroke-width:1.0;stroke-dasharray:2.0,2.0;" x1="476.5" x2="868.5" y1="473.9531" y2="473.9531"/><polygon fill="#181818" points="749.5,499.0859,759.5,503.0859,749.5,507.0859,753.5,503.0859" style="stroke:#181818;stroke-width:1.0;"/><line style="stroke:#181818;stroke-width:1.0;" x1="471.5" x2="755.5" y1="503.0859" y2="503.0859"/><text fill="#000000" font-family="sans-serif" font-size="13" lengthAdjust="spacing" textLength="218" x="478.5" y="498.02">AjouterMembre(pseudo_membre)</text><polygon fill="#181818" points="487.5,513.0859,477.5,517.0859,487.5,521.0859,483.5,517.0859" style="stroke:#181818;stroke-width:1.0;"/><line style="stroke:#181818;stroke-width:1.0;stroke-dasharray:2.0,2.0;" x1="481.5" x2="760.5" y1="517.0859" y2="517.0859"/><polygon fill="#181818" points="1396.5,542.2188,1406.5,546.2188,1396.5,550.2188,1400.5,546.2188" style="stroke:#181818;stroke-width:1.0;"/><line style="stroke:#181818;stroke-width:1.0;" x1="476.5" x2="1402.5" y1="546.2188" y2="546.2188"/><text fill="#000000" font-family="sans-serif" font-size="13" lengthAdjust="spacing" textLength="61" x="483.5" y="541.1528">"create()"</text><rect fill="#FFFFFF" height="30.2969" rx="2.5" ry="2.5" style="stroke:#181818;stroke-width:0.5;" width="270" x="1408.5" y="525.0859"/><text fill="#000000" font-family="sans-serif" font-size="14" lengthAdjust="spacing" text-decoration="underline" textLength="256" x="1415.5" y="545.0811">consommateur1:MonConsommateur</text><polygon fill="#181818" points="487.5,568.3828,477.5,572.3828,487.5,576.3828,483.5,572.3828" style="stroke:#181818;stroke-width:1.0;"/><line style="stroke:#181818;stroke-width:1.0;stroke-dasharray:2.0,2.0;" x1="481.5" x2="1542.5" y1="572.3828" y2="572.3828"/><polygon fill="#181818" points="749.5,597.5156,759.5,601.5156,749.5,605.5156,753.5,601.5156" style="stroke:#181818;stroke-width:1.0;"/><line style="stroke:#181818;stroke-width:1.0;" x1="476.5" x2="755.5" y1="601.5156" y2="601.5156"/><text fill="#000000" font-family="sans-serif" font-size="13" lengthAdjust="spacing" textLength="261" x="483.5" y="596.4497">RendreConsommateur(consommateur1)</text><polygon fill="#181818" points="492.5,611.5156,482.5,615.5156,492.5,619.5156,488.5,615.5156" style="stroke:#181818;stroke-width:1.0;"/><line style="stroke:#181818;stroke-width:1.0;stroke-dasharray:2.0,2.0;" x1="486.5" x2="760.5" y1="615.5156" y2="615.5156"/><polygon fill="#181818" points="857.5,640.6484,867.5,644.6484,857.5,648.6484,861.5,644.6484" style="stroke:#181818;stroke-width:1.0;"/><line style="stroke:#181818;stroke-width:1.0;" x1="481.5" x2="863.5" y1="644.6484" y2="644.6484"/><text fill="#000000" font-family="sans-serif" font-size="13" lengthAdjust="spacing" textLength="364" x="488.5" y="639.5825">SuouscrireDansProducteurMsgEnAttente(consomateur1)</text><polygon fill="#181818" points="497.5,654.6484,487.5,658.6484,497.5,662.6484,493.5,658.6484" style="stroke:#181818;stroke-width:1.0;"/><line style="stroke:#181818;stroke-width:1.0;stroke-dasharray:2.0,2.0;" x1="491.5" x2="868.5" y1="658.6484" y2="658.6484"/><polygon fill="#181818" points="857.5,683.7813,867.5,687.7813,857.5,691.7813,861.5,687.7813" style="stroke:#181818;stroke-width:1.0;"/><line style="stroke:#181818;stroke-width:1.0;" x1="486.5" x2="863.5" y1="687.7813" y2="687.7813"/><text fill="#000000" font-family="sans-serif" font-size="13" lengthAdjust="spacing" textLength="341" x="493.5" y="682.7153">SouscrireDansProducteurMsgPoste(consommateur1)</text><polygon fill="#181818" points="502.5,697.7813,492.5,701.7813,502.5,705.7813,498.5,701.7813" style="stroke:#181818;stroke-width:1.0;"/><line style="stroke:#181818;stroke-width:1.0;stroke-dasharray:2.0,2.0;" x1="496.5" x2="868.5" y1="701.7813" y2="701.7813"/><!--SRC=[bLHBRjim45sRfvXwOnj92cHhH0PS9mKAr82HDEZIOAY9pKGaLNw2z0OzHdU5p-6Rz2JbJvQKsWKgm1A7UlFUl1dAesjEDveAWL0YcFtkcqF94CQhYafxl_my6H4oMYZvo3TEKykL1BQbsYBuj7hBFNv4jjmdFofb7zGhCSzSrjHpWi74jl9updZj6JzGzhpHoiboeIgbuUkMMpoICcTMwUDWChhUxrX5SpKb6g3CejC6qCQmRlKCZClzxcd_4_2L6njtw8j_G4LRkzua3O8mNA-dzvPNtD30k5uFWHfm1ZNfa0QOEuPx2nBJ9PVyJZ6J4OBuykyENQOloA3o5GiqXcxGdCU8wVqkcZDXA5qtvzuYU-z74ag2Yna8E3k3AIny1khR_SuWTMEfn3glpw4sw4eblmjirck1ua7ZX02esdO0u3CbI5TLyFl7BmZ1Yv_i90Izr7y1lVWj1kbJ82_hBn6hZyMxWcrHXz-uhMK2tGQd7ARHHwUx7q71aeDtHH1EErdCXJvbeHjBxKA9sc9Nie4xk4Z5DHk1iqqfYldYowUFG0QDZJG4VV1nP12JQLw4B8tMQHbMhINT0B8T7LuVr3KKHUnbsXqqfeubDjLSNINsO-UXEGEpMPOPzFehBgVB26ZExIKP18JEcd-_JwB-sShsbCB9fJOb5OLG_glKSNgnXCYTcv9ryWHYAFBuva_AMTI9PVpcD4Uaw-MrpMgjCVzPAI6YjdUXvAApaUtqCAJXUDlu_sPAFHhczao6RNbTxuV3UekorDWb7VVe6ikfLn1CGtj56krfxfnoXcckyPfAizAgTF7lScasDt9kBKfVJ2BkyUeExw17U99lfSo1wnHPc4gQJVUUY_QEVU3l90KaRG4XVm00]--></g></svg>