<?xml version="1.0" encoding="us-ascii" standalone="no"?><svg xmlns="http://www.w3.org/2000/svg" xmlns:xlink="http://www.w3.org/1999/xlink" contentStyleType="text/css" height="1454px" preserveAspectRatio="none" style="width:852px;height:1454px;background:#FFFFFF;" version="1.1" viewBox="0 0 852 1454" width="852px" zoomAndPan="magnify"><defs/><g><!--cluster MiniSocs--><g id="cluster_MiniSocs"><rect fill="none" height="1441" rx="2.5" ry="2.5" style="stroke:#181818;stroke-width:1.0;" width="311" x="535" y="7"/><text fill="#000000" font-family="sans-serif" font-size="14" font-weight="bold" lengthAdjust="spacing" textLength="69" x="656" y="21.9951">MiniSocs</text></g><g id="elem_ajouter un utilisateur"><ellipse cx="690.6728" cy="224.8346" fill="#FFFFFF" rx="89.6728" ry="20.3346" style="stroke:#000000;stroke-width:0.5;"/><text fill="#000000" font-family="sans-serif" font-size="14" lengthAdjust="spacing" textLength="141" x="620.1728" y="227.6812">ajouter un utilisateur</text></g><g id="elem_lister les utilisateur"><ellipse cx="690.495" cy="300.199" fill="#FFFFFF" rx="83.995" ry="19.199" style="stroke:#000000;stroke-width:0.5;"/><text fill="#000000" font-family="sans-serif" font-size="14" lengthAdjust="spacing" textLength="128" x="626.2335" y="303.1356">lister les utilisateur</text></g><g id="elem_retirer un utilisateur"><ellipse cx="690.5998" cy="62.22" fill="#FFFFFF" rx="86.5998" ry="19.72" style="stroke:#000000;stroke-width:0.5;"/><text fill="#000000" font-family="sans-serif" font-size="14" lengthAdjust="spacing" textLength="134" x="623.5998" y="65.0666">retirer un utilisateur</text></g><g id="elem_bloquer un compte utilisateur"><ellipse cx="690.4616" cy="142.9923" fill="#FFFFFF" rx="117.9616" ry="25.9923" style="stroke:#000000;stroke-width:0.5;"/><text fill="#000000" font-family="sans-serif" font-size="14" lengthAdjust="spacing" textLength="203" x="588.9616" y="145.839">bloquer un compte utilisateur</text></g><g id="elem_Ajouter un membre au r&#233;seau social"><ellipse cx="690.712" cy="384.8424" fill="#FFFFFF" rx="139.712" ry="30.3424" style="stroke:#000000;stroke-width:0.5;"/><text fill="#000000" font-family="sans-serif" font-size="14" lengthAdjust="spacing" textLength="249" x="566.212" y="387.6891">Ajouter un membre au r&#233;seau social</text></g><g id="elem_Rendre un membre mod&#233;rateur"><ellipse cx="690.4468" cy="478.0894" fill="#FFFFFF" rx="125.9468" ry="27.5894" style="stroke:#000000;stroke-width:0.5;"/><text fill="#000000" font-family="sans-serif" font-size="14" lengthAdjust="spacing" textLength="220" x="580.4468" y="480.936">Rendre un membre mod&#233;rateur</text></g><g id="elem_Accepter un message"><ellipse cx="690.5638" cy="561.8128" fill="#FFFFFF" rx="94.5638" ry="21.3128" style="stroke:#000000;stroke-width:0.5;"/><text fill="#000000" font-family="sans-serif" font-size="14" lengthAdjust="spacing" textLength="152" x="614.5638" y="564.6594">Accepter un message</text></g><g id="elem_Refuser un message"><ellipse cx="690.4996" cy="639.0999" fill="#FFFFFF" rx="90.9996" ry="20.5999" style="stroke:#000000;stroke-width:0.5;"/><text fill="#000000" font-family="sans-serif" font-size="14" lengthAdjust="spacing" textLength="144" x="618.4996" y="641.9466">Refuser un message</text></g><g id="elem_Lister les r&#233;seaux sociaux"><ellipse cx="690.4496" cy="717.9899" fill="#FFFFFF" rx="105.4496" ry="23.4899" style="stroke:#000000;stroke-width:0.5;"/><text fill="#000000" font-family="sans-serif" font-size="14" lengthAdjust="spacing" textLength="176" x="602.4496" y="720.8366">Lister les r&#233;seaux sociaux</text></g><g id="elem_Lister les membres"><ellipse cx="690.2932" cy="795.9586" fill="#FFFFFF" rx="85.2932" ry="19.4586" style="stroke:#000000;stroke-width:0.5;"/><text fill="#000000" font-family="sans-serif" font-size="14" lengthAdjust="spacing" textLength="131" x="624.7932" y="798.8053">Lister les membres</text></g><g id="elem_Fermer un r&#233;seau social"><ellipse cx="690.3822" cy="873.0764" fill="#FFFFFF" rx="100.8822" ry="22.5764" style="stroke:#000000;stroke-width:0.5;"/><text fill="#000000" font-family="sans-serif" font-size="14" lengthAdjust="spacing" textLength="166" x="607.3822" y="875.9231">Fermer un r&#233;seau social</text></g><g id="elem_NotifierMsgPost&#233;"><ellipse cx="690.3735" cy="948.7747" fill="#FFFFFF" rx="79.3735" ry="18.2747" style="stroke:#000000;stroke-width:0.5;"/><text fill="#000000" font-family="sans-serif" font-size="14" lengthAdjust="spacing" textLength="117" x="629.9676" y="952.2248">NotifierMsgPost&#233;</text></g><g id="elem_cr&#233;er un r&#233;seau social"><ellipse cx="690.5118" cy="1173.9024" fill="#FFFFFF" rx="95.0118" ry="21.4024" style="stroke:#000000;stroke-width:0.5;"/><text fill="#000000" font-family="sans-serif" font-size="14" lengthAdjust="spacing" textLength="153" x="614.0118" y="1176.749">cr&#233;er un r&#233;seau social</text></g><g id="elem_afficher un r&#233;seau social"><ellipse cx="690.3371" cy="1253.1674" fill="#FFFFFF" rx="101.3371" ry="22.6674" style="stroke:#000000;stroke-width:0.5;"/><text fill="#000000" font-family="sans-serif" font-size="14" lengthAdjust="spacing" textLength="167" x="606.8371" y="1256.0141">afficher un r&#233;seau social</text></g><g id="elem_d&#233;sactiver son compte"><ellipse cx="690.2599" cy="1332.852" fill="#FFFFFF" rx="97.2599" ry="21.852" style="stroke:#000000;stroke-width:0.5;"/><text fill="#000000" font-family="sans-serif" font-size="14" lengthAdjust="spacing" textLength="158" x="611.2599" y="1335.6987">d&#233;sactiver son compte</text></g><g id="elem_r&#233;activer son compte"><ellipse cx="690.3872" cy="1410.7774" fill="#FFFFFF" rx="91.8872" ry="20.7774" style="stroke:#000000;stroke-width:0.5;"/><text fill="#000000" font-family="sans-serif" font-size="14" lengthAdjust="spacing" textLength="146" x="617.3872" y="1413.6241">r&#233;activer son compte</text></g><g id="elem_poster un message"><ellipse cx="690.5368" cy="1022.8074" fill="#FFFFFF" rx="87.0368" ry="19.8074" style="stroke:#000000;stroke-width:0.5;"/><text fill="#000000" font-family="sans-serif" font-size="14" lengthAdjust="spacing" textLength="135" x="623.0368" y="1025.654">poster un message</text></g><g id="elem_NotifierMsgAccept&#233;"><ellipse cx="690.5998" cy="1098.22" fill="#FFFFFF" rx="86.5998" ry="19.72" style="stroke:#000000;stroke-width:0.5;"/><text fill="#000000" font-family="sans-serif" font-size="14" lengthAdjust="spacing" textLength="134" x="623.5998" y="1101.0666">NotifierMsgAccept&#233;</text></g><!--entity Administrateur--><g id="elem_Administrateur"><ellipse cx="441" cy="195.5" fill="#F1F1F1" rx="8" ry="8" style="stroke:#181818;stroke-width:0.5;"/><path d="M441,203.5 L441,230.5 M428,211.5 L454,211.5 M441,230.5 L428,245.5 M441,230.5 L454,245.5 " fill="none" style="stroke:#181818;stroke-width:0.5;"/><text fill="#000000" font-family="sans-serif" font-size="14" lengthAdjust="spacing" textLength="100" x="391" y="259.9951">Administrateur</text></g><!--entity Utilisateur--><g id="elem_Utilisateur"><ellipse cx="40" cy="1223.5" fill="#F1F1F1" rx="8" ry="8" style="stroke:#181818;stroke-width:0.5;"/><path d="M40,1231.5 L40,1258.5 M27,1239.5 L53,1239.5 M40,1258.5 L27,1273.5 M40,1258.5 L53,1273.5 " fill="none" style="stroke:#181818;stroke-width:0.5;"/><text fill="#000000" font-family="sans-serif" font-size="14" lengthAdjust="spacing" textLength="68" x="6" y="1287.9951">Utilisateur</text></g><!--entity Membre--><g id="elem_Membre"><ellipse cx="162.5" cy="1025.5" fill="#F1F1F1" rx="8" ry="8" style="stroke:#181818;stroke-width:0.5;"/><path d="M162.5,1033.5 L162.5,1060.5 M149.5,1041.5 L175.5,1041.5 M162.5,1060.5 L149.5,1075.5 M162.5,1060.5 L175.5,1075.5 " fill="none" style="stroke:#181818;stroke-width:0.5;"/><text fill="#000000" font-family="sans-serif" font-size="14" lengthAdjust="spacing" textLength="57" x="134" y="1089.9951">Membre</text></g><!--entity Mod?rateur--><g id="elem_Mod&#233;rateur"><ellipse cx="291" cy="649.5" fill="#F1F1F1" rx="8" ry="8" style="stroke:#181818;stroke-width:0.5;"/><path d="M291,657.5 L291,684.5 M278,665.5 L304,665.5 M291,684.5 L278,699.5 M291,684.5 L304,699.5 " fill="none" style="stroke:#181818;stroke-width:0.5;"/><text fill="#000000" font-family="sans-serif" font-size="14" lengthAdjust="spacing" textLength="80" x="251" y="713.9951">Mod&#233;rateur</text></g><!--reverse link Utilisateur to Membre--><g id="link_Utilisateur_Membre"><path d="M73.5888,1199.4443 C94.9288,1164.3843 117.02,1128.08 138.34,1093.06 " fill="none" id="Utilisateur-backto-Membre" style="stroke:#000000;stroke-width:1.0;"/><polygon fill="none" points="64.23,1214.82,78.714,1202.5638,68.4635,1196.3247,64.23,1214.82" style="stroke:#000000;stroke-width:1.0;"/></g><!--reverse link Membre to Mod?rateur--><g id="link_Membre_Mod&#233;rateur"><path d="M182.0682,999.8192 C206.3082,927.7492 252.87,789.37 277.14,717.22 " fill="none" id="Membre-backto-Mod&#233;rateur" style="stroke:#000000;stroke-width:1.0;"/><polygon fill="none" points="176.33,1016.88,187.7552,1001.7319,176.3813,997.9064,176.33,1016.88" style="stroke:#000000;stroke-width:1.0;"/></g><!--reverse link Mod?rateur to Administrateur--><g id="link_Mod&#233;rateur_Administrateur"><path d="M309.8379,623.8231 C328.5079,566.0831 359.62,470.05 391,374 C403.3,336.34 417.45,293.36 427.37,263.27 " fill="none" id="Mod&#233;rateur-backto-Administrateur" style="stroke:#000000;stroke-width:1.0;"/><polygon fill="none" points="304.3,640.95,315.5469,625.6691,304.1289,621.9771,304.3,640.95" style="stroke:#000000;stroke-width:1.0;"/></g><!--link Administrateur to ajouter un utilisateur--><g id="link_Administrateur_ajouter un utilisateur"><path d="M491.19,225 C522.49,225 563.93,225 600.83,225 " fill="none" id="Administrateur-ajouter un utilisateur" style="stroke:#000000;stroke-width:1.0;"/></g><!--link Administrateur to lister les utilisateur--><g id="link_Administrateur_lister les utilisateur"><path d="M491.24,248.97 C502.8,254.05 515.19,259.06 527,263 C558.43,273.49 594.25,282 624.25,288.2 " fill="none" id="Administrateur-lister les utilisateur" style="stroke:#000000;stroke-width:1.0;"/></g><!--link Administrateur to retirer un utilisateur--><g id="link_Administrateur_retirer un utilisateur"><path d="M458.13,186.97 C472.2,158.43 495.33,120.7 527,99 C550.75,82.73 580.59,73.52 608.19,68.34 " fill="none" id="Administrateur-retirer un utilisateur" style="stroke:#000000;stroke-width:1.0;"/></g><!--link Administrateur to bloquer un compte utilisateur--><g id="link_Administrateur_bloquer un compte utilisateur"><path d="M491.36,201.38 C502.91,196.28 515.28,191.18 527,187 C553.43,177.58 582.89,169.04 609.39,162.04 " fill="none" id="Administrateur-bloquer un compte utilisateur" style="stroke:#000000;stroke-width:1.0;"/></g><!--link Mod?rateur to Ajouter un membre au r?seau social--><g id="link_Mod&#233;rateur_Ajouter un membre au r&#233;seau social"><path d="M315.83,640.89 C334.52,612.43 362.13,573.38 391,543 C444.56,486.65 458.18,469.15 527,433 C547.31,422.33 570.33,413.71 592.53,406.87 " fill="none" id="Mod&#233;rateur-Ajouter un membre au r&#233;seau social" style="stroke:#000000;stroke-width:1.0;"/></g><!--link Mod?rateur to Rendre un membre mod?rateur--><g id="link_Mod&#233;rateur_Rendre un membre mod&#233;rateur"><path d="M331.18,644.18 C348.88,629.18 370.4,611.94 391,598 C448.17,559.32 463.08,549.06 527,523 C551.13,513.17 578.12,504.73 603.07,497.91 " fill="none" id="Mod&#233;rateur-Rendre un membre mod&#233;rateur" style="stroke:#000000;stroke-width:1.0;"/></g><!--link Mod?rateur to Accepter un message--><g id="link_Mod&#233;rateur_Accepter un message"><path d="M331.06,661.48 C349.1,653.73 370.93,644.85 391,638 C468.05,611.68 559.03,589.79 620.12,576.36 " fill="none" id="Mod&#233;rateur-Accepter un message" style="stroke:#000000;stroke-width:1.0;"/></g><!--link Mod?rateur to Refuser un message--><g id="link_Mod&#233;rateur_Refuser un message"><path d="M331.01,674.54 C349.23,672.49 371.22,670.06 391,668 C463.63,660.44 546.27,652.46 606.16,646.79 " fill="none" id="Mod&#233;rateur-Refuser un message" style="stroke:#000000;stroke-width:1.0;"/></g><!--link Mod?rateur to Lister les r?seaux sociaux--><g id="link_Mod&#233;rateur_Lister les r&#233;seaux sociaux"><path d="M331.2,682.85 C391.72,688.78 509.7,700.36 593.73,708.6 " fill="none" id="Mod&#233;rateur-Lister les r&#233;seaux sociaux" style="stroke:#000000;stroke-width:1.0;"/></g><!--link Mod?rateur to Lister les membres--><g id="link_Mod&#233;rateur_Lister les membres"><path d="M331.11,693.71 C377.43,710.81 457.13,739.21 527,759 C559.29,768.15 595.69,776.6 625.83,783.11 " fill="none" id="Mod&#233;rateur-Lister les membres" style="stroke:#000000;stroke-width:1.0;"/></g><!--link Mod?rateur to Fermer un r?seau social--><g id="link_Mod&#233;rateur_Fermer un r&#233;seau social"><path d="M331.47,711.84 C349.22,726.04 370.71,742.47 391,756 C448.79,794.54 462.45,807.35 527,833 C554.14,843.78 585.01,852.27 612.5,858.59 " fill="none" id="Mod&#233;rateur-Fermer un r&#233;seau social" style="stroke:#000000;stroke-width:1.0;"/></g><!--reverse link Mod?rateur to NotifierMsgPost?--><g id="link_Mod&#233;rateur_NotifierMsgPost&#233;"><path d="M314.8178,722.3816 C332.6078,754.0616 357.98,793.75 391,826 C442.33,876.14 460.73,885.48 527,913 C557.02,925.47 592.04,933.93 621.86,939.5 " fill="none" id="Mod&#233;rateur-backto-NotifierMsgPost&#233;" style="stroke:#000000;stroke-width:1.0;"/><polygon fill="#000000" points="311.88,717.15,312.799,726.9559,314.3282,721.5096,319.7744,723.0388,311.88,717.15" style="stroke:#000000;stroke-width:1.0;"/></g><!--link Utilisateur to cr?er un r?seau social--><g id="link_Utilisateur_cr&#233;er un r&#233;seau social"><path d="M74.24,1242.16 C91.83,1236.82 113.89,1230.74 134,1227 C295.2,1197.02 486.06,1183.52 596.9,1177.81 " fill="none" id="Utilisateur-cr&#233;er un r&#233;seau social" style="stroke:#000000;stroke-width:1.0;"/></g><!--link Utilisateur to afficher un r?seau social--><g id="link_Utilisateur_afficher un r&#233;seau social"><path d="M74.05,1253 C168.07,1253 439.81,1253 588.81,1253 " fill="none" id="Utilisateur-afficher un r&#233;seau social" style="stroke:#000000;stroke-width:1.0;"/></g><!--link Utilisateur to d?sactiver son compte--><g id="link_Utilisateur_d&#233;sactiver son compte"><path d="M74.05,1257.08 C171.49,1269.1 459.81,1304.67 604.57,1322.52 " fill="none" id="Utilisateur-d&#233;sactiver son compte" style="stroke:#000000;stroke-width:1.0;"/></g><!--link Utilisateur to r?activer son compte--><g id="link_Utilisateur_r&#233;activer son compte"><path d="M74.03,1263.03 C91.75,1268.3 114,1274.74 134,1280 C309.85,1326.23 519.02,1373.49 623.39,1396.55 " fill="none" id="Utilisateur-r&#233;activer son compte" style="stroke:#000000;stroke-width:1.0;"/></g><!--link Membre to poster un message--><g id="link_Membre_poster un message"><path d="M191.04,1053.32 C267.56,1048.67 485.05,1035.44 605.92,1028.08 " fill="none" id="Membre-poster un message" style="stroke:#000000;stroke-width:1.0;"/></g><!--reverse link Membre to NotifierMsgAccept?--><g id="link_Membre_NotifierMsgAccept&#233;"><path d="M197.02,1057.7391 C274.17,1064.0491 488.67,1081.58 608.91,1091.41 " fill="none" id="Membre-backto-NotifierMsgAccept&#233;" style="stroke:#000000;stroke-width:1.0;"/><polygon fill="#000000" points="191.04,1057.25,199.684,1061.9703,196.0234,1057.6576,200.3361,1053.997,191.04,1057.25" style="stroke:#000000;stroke-width:1.0;"/></g><!--SRC=[ZPFFRjim3CRFqrCGlRWzz0M2e43IOjkX6OeDnSwgHDjQ9J7Jdwt3rlTPdYClDhfoPYVnbkRYcFpnqqUHhcwCR89q3a4ZA1b1LpaPQw9CXZoStrdfq_tgzg8IehecNvicXv9JhGm9WSlNhVcQiHBnqVYrP3d84LaCuQTOIlNO1CfUNvEb09zRar0iAMWC9RAqZ8X52FHzBw0IXOFg-HpUPoSzN5t1Ex9QF0jXiKwG289fsWJQ15ITFRPxizqeAtkt6YD8bJ272BDAo4uT5jePRs9YXXDzyBxlVuYiq3q4tBsGtcxwWX4Ayr-NbpkoFDu0_qfuL3FwtsSFN4mvFvwCbZw2HOW_Ojh-TdpxNUFIDnmxMx7U9rBnZ0SmsvUV0PzuBhzGJXWWUyX33nVJCASxrhAFqt30n2DufVA39LwS5rYHM_CsxTUCxgeKB0RVxkMEGMO8sqr4VaPIHjgfie_eDRD3bHk8oMEKmlNVSsAK3KxBrhpefwZRuVfwfq_5QduwWHUpSOfwYy6La__V_Ro3Fr0ojS6mYiqTyRfic1gjRb5KBFGFnIDMrhLHxMjfjXFvsp7Vk23IRjHJ96jDWkLxAioQul5a-lnXjsMENR_FuWy0]--></g></svg>