<?xml version="1.0" encoding="us-ascii" standalone="no"?><svg xmlns="http://www.w3.org/2000/svg" xmlns:xlink="http://www.w3.org/1999/xlink" contentStyleType="text/css" height="960px" preserveAspectRatio="none" style="width:1903px;height:960px;background:#FFFFFF;" version="1.1" viewBox="0 0 1903 960" width="1903px" zoomAndPan="magnify"><defs/><g><rect fill="#FFFFFF" height="832.1172" style="stroke:#181818;stroke-width:1.0;" width="10" x="522.5" y="112.4297"/><rect fill="#FFFFFF" height="770.8516" style="stroke:#181818;stroke-width:1.0;" width="10" x="527.5" y="173.6953"/><rect fill="#FFFFFF" height="698.5859" style="stroke:#181818;stroke-width:1.0;" width="10" x="532.5" y="245.9609"/><rect fill="#FFFFFF" height="637.3203" style="stroke:#181818;stroke-width:1.0;" width="10" x="537.5" y="307.2266"/><rect fill="#FFFFFF" height="565.0547" style="stroke:#181818;stroke-width:1.0;" width="10" x="542.5" y="379.4922"/><rect fill="#FFFFFF" height="712.5859" style="stroke:#181818;stroke-width:1.0;" width="10" x="795.5" y="231.9609"/><rect fill="#FFFFFF" height="579.0547" style="stroke:#181818;stroke-width:1.0;" width="10" x="892" y="365.4922"/><rect fill="#FFFFFF" height="474.6563" style="stroke:#181818;stroke-width:1.0;" width="10" x="897" y="469.8906"/><rect fill="#FFFFFF" height="402.3906" style="stroke:#181818;stroke-width:1.0;" width="10" x="902" y="542.1563"/><rect fill="#FFFFFF" height="244.5313" style="stroke:#181818;stroke-width:1.0;" width="10" x="907" y="700.0156"/><rect fill="#FFFFFF" height="91" style="stroke:#181818;stroke-width:1.0;" width="10" x="912" y="853.5469"/><rect fill="#FFFFFF" height="339.125" style="stroke:#181818;stroke-width:1.0;" width="10" x="1368" y="605.4219"/><rect fill="#FFFFFF" height="185.5938" style="stroke:#181818;stroke-width:1.0;" width="10" x="1626" y="758.9531"/><rect fill="none" height="781.1172" style="stroke:#000000;stroke-width:1.5;" width="1462" x="435" y="127.4297"/><rect fill="none" height="707.8516" style="stroke:#000000;stroke-width:1.5;" width="1442" x="445" y="193.6953"/><rect fill="none" height="633.5859" style="stroke:#000000;stroke-width:1.5;" width="1422" x="455" y="260.9609"/><rect fill="none" height="560.3203" style="stroke:#000000;stroke-width:1.5;" width="1402" x="465" y="327.2266"/><rect fill="none" height="486.0547" style="stroke:#000000;stroke-width:1.5;" width="1382" x="475" y="394.4922"/><rect fill="none" height="383.6563" style="stroke:#000000;stroke-width:1.5;" width="1008.5" x="838.5" y="489.8906"/><rect fill="none" height="309.3906" style="stroke:#000000;stroke-width:1.5;" width="988.5" x="848.5" y="557.1563"/><line style="stroke:#181818;stroke-width:0.5;stroke-dasharray:5.0,5.0;" x1="44" x2="44" y1="81.2969" y2="953.5469"/><line style="stroke:#181818;stroke-width:0.5;stroke-dasharray:5.0,5.0;" x1="527" x2="527" y1="81.2969" y2="953.5469"/><line style="stroke:#181818;stroke-width:0.5;stroke-dasharray:5.0,5.0;" x1="800.5" x2="800.5" y1="81.2969" y2="953.5469"/><line style="stroke:#181818;stroke-width:0.5;stroke-dasharray:5.0,5.0;" x1="896.5" x2="896.5" y1="81.2969" y2="953.5469"/><line style="stroke:#181818;stroke-width:0.5;stroke-dasharray:5.0,5.0;" x1="1244" x2="1244" y1="81.2969" y2="953.5469"/><line style="stroke:#181818;stroke-width:0.5;stroke-dasharray:5.0,5.0;" x1="1373" x2="1373" y1="604.9375" y2="953.5469"/><line style="stroke:#181818;stroke-width:0.5;stroke-dasharray:5.0,5.0;" x1="1502" x2="1502" y1="646.2344" y2="953.5469"/><line style="stroke:#181818;stroke-width:0.5;stroke-dasharray:5.0,5.0;" x1="1631" x2="1631" y1="758.4688" y2="953.5469"/><line style="stroke:#181818;stroke-width:0.5;stroke-dasharray:5.0,5.0;" x1="1760" x2="1760" y1="799.7656" y2="953.5469"/><text fill="#000000" font-family="sans-serif" font-size="14" lengthAdjust="spacing" text-decoration="underline" textLength="73" x="5" y="77.9951">:Utilisateur</text><ellipse cx="44.5" cy="13.5" fill="#FFFFFF" rx="8" ry="8" style="stroke:#181818;stroke-width:0.5;"/><path d="M44.5,21.5 L44.5,48.5 M31.5,29.5 L57.5,29.5 M44.5,48.5 L31.5,63.5 M44.5,48.5 L57.5,63.5 " fill="none" style="stroke:#181818;stroke-width:0.5;"/><rect fill="#FFFFFF" height="30.2969" rx="2.5" ry="2.5" style="stroke:#181818;stroke-width:0.5;" width="85" x="485" y="50"/><text fill="#000000" font-family="sans-serif" font-size="14" lengthAdjust="spacing" text-decoration="underline" textLength="71" x="492" y="69.9951">m:minisoc</text><rect fill="#FFFFFF" height="30.2969" rx="2.5" ry="2.5" style="stroke:#181818;stroke-width:0.5;" width="96" x="752.5" y="50"/><text fill="#000000" font-family="sans-serif" font-size="14" lengthAdjust="spacing" text-decoration="underline" textLength="82" x="759.5" y="69.9951">u:Utilisateur</text><rect fill="#FFFFFF" height="30.2969" rx="2.5" ry="2.5" style="stroke:#181818;stroke-width:0.5;" width="77" x="858.5" y="50"/><text fill="#000000" font-family="sans-serif" font-size="14" lengthAdjust="spacing" text-decoration="underline" textLength="63" x="865.5" y="69.9951">r:R&#233;seau</text><rect fill="#FFFFFF" height="30.2969" rx="2.5" ry="2.5" style="stroke:#181818;stroke-width:0.5;" width="134" x="1177" y="50"/><text fill="#000000" font-family="sans-serif" font-size="14" lengthAdjust="spacing" text-decoration="underline" textLength="120" x="1184" y="69.9951">member:Member</text><rect fill="#FFFFFF" height="832.1172" style="stroke:#181818;stroke-width:1.0;" width="10" x="522.5" y="112.4297"/><rect fill="#FFFFFF" height="770.8516" style="stroke:#181818;stroke-width:1.0;" width="10" x="527.5" y="173.6953"/><rect fill="#FFFFFF" height="698.5859" style="stroke:#181818;stroke-width:1.0;" width="10" x="532.5" y="245.9609"/><rect fill="#FFFFFF" height="637.3203" style="stroke:#181818;stroke-width:1.0;" width="10" x="537.5" y="307.2266"/><rect fill="#FFFFFF" height="565.0547" style="stroke:#181818;stroke-width:1.0;" width="10" x="542.5" y="379.4922"/><rect fill="#FFFFFF" height="712.5859" style="stroke:#181818;stroke-width:1.0;" width="10" x="795.5" y="231.9609"/><rect fill="#FFFFFF" height="579.0547" style="stroke:#181818;stroke-width:1.0;" width="10" x="892" y="365.4922"/><rect fill="#FFFFFF" height="474.6563" style="stroke:#181818;stroke-width:1.0;" width="10" x="897" y="469.8906"/><rect fill="#FFFFFF" height="402.3906" style="stroke:#181818;stroke-width:1.0;" width="10" x="902" y="542.1563"/><rect fill="#FFFFFF" height="244.5313" style="stroke:#181818;stroke-width:1.0;" width="10" x="907" y="700.0156"/><rect fill="#FFFFFF" height="91" style="stroke:#181818;stroke-width:1.0;" width="10" x="912" y="853.5469"/><rect fill="#FFFFFF" height="339.125" style="stroke:#181818;stroke-width:1.0;" width="10" x="1368" y="605.4219"/><rect fill="#FFFFFF" height="185.5938" style="stroke:#181818;stroke-width:1.0;" width="10" x="1626" y="758.9531"/><polygon fill="#181818" points="510.5,108.4297,520.5,112.4297,510.5,116.4297,514.5,112.4297" style="stroke:#181818;stroke-width:1.0;"/><line style="stroke:#181818;stroke-width:1.0;" x1="44.5" x2="516.5" y1="112.4297" y2="112.4297"/><text fill="#000000" font-family="sans-serif" font-size="13" lengthAdjust="spacing" textLength="459" x="51.5" y="107.3638">PosterMessage(contenu, pseudo_membre, pseudonyme, nom_R&#233;seau)</text><path d="M435,127.4297 L505,127.4297 L505,134.5625 L495,144.5625 L435,144.5625 L435,127.4297 " fill="#EEEEEE" style="stroke:#000000;stroke-width:1.5;"/><rect fill="none" height="781.1172" style="stroke:#000000;stroke-width:1.5;" width="1462" x="435" y="127.4297"/><text fill="#000000" font-family="sans-serif" font-size="13" font-weight="bold" lengthAdjust="spacing" textLength="25" x="450" y="140.4966">opt</text><text fill="#000000" font-family="sans-serif" font-size="11" font-weight="bold" lengthAdjust="spacing" textLength="922" x="520" y="139.6401">[pseudo_membre (non null &#8743; non vide) &#8743; pseudonyme (non null &#8743; non vide)&#8743; contenu (non null &#8743; non vide)&#8743; nom_R&#233;seau (non null &#8743; non vide)]</text><line style="stroke:#181818;stroke-width:1.0;" x1="532.5" x2="579.5" y1="160.6953" y2="160.6953"/><line style="stroke:#181818;stroke-width:1.0;" x1="579.5" x2="579.5" y1="160.6953" y2="173.6953"/><line style="stroke:#181818;stroke-width:1.0;" x1="538.5" x2="579.5" y1="173.6953" y2="173.6953"/><polygon fill="#181818" points="548.5,169.6953,538.5,173.6953,548.5,177.6953,544.5,173.6953" style="stroke:#181818;stroke-width:1.0;"/><text fill="#000000" font-family="sans-serif" font-size="13" lengthAdjust="spacing" textLength="249" x="544.5" y="155.6294">u= chercher(pseudonyme) : Utilisateur</text><path d="M445,193.6953 L515,193.6953 L515,200.8281 L505,210.8281 L445,210.8281 L445,193.6953 " fill="#EEEEEE" style="stroke:#000000;stroke-width:1.5;"/><rect fill="none" height="707.8516" style="stroke:#000000;stroke-width:1.5;" width="1442" x="445" y="193.6953"/><text fill="#000000" font-family="sans-serif" font-size="13" font-weight="bold" lengthAdjust="spacing" textLength="25" x="460" y="206.7622">opt</text><text fill="#000000" font-family="sans-serif" font-size="11" font-weight="bold" lengthAdjust="spacing" textLength="60" x="530" y="205.9058">[u!= null]</text><polygon fill="#181818" points="783.5,227.9609,793.5,231.9609,783.5,235.9609,787.5,231.9609" style="stroke:#181818;stroke-width:1.0;"/><line style="stroke:#181818;stroke-width:1.0;" x1="537.5" x2="789.5" y1="231.9609" y2="231.9609"/><text fill="#000000" font-family="sans-serif" font-size="13" lengthAdjust="spacing" textLength="228" x="544.5" y="226.895">ChercherEtatCompte(pseudonyme)</text><polygon fill="#181818" points="553.5,241.9609,543.5,245.9609,553.5,249.9609,549.5,245.9609" style="stroke:#181818;stroke-width:1.0;"/><line style="stroke:#181818;stroke-width:1.0;stroke-dasharray:2.0,2.0;" x1="547.5" x2="794.5" y1="245.9609" y2="245.9609"/><path d="M455,260.9609 L525,260.9609 L525,268.0938 L515,278.0938 L455,278.0938 L455,260.9609 " fill="#EEEEEE" style="stroke:#000000;stroke-width:1.5;"/><rect fill="none" height="633.5859" style="stroke:#000000;stroke-width:1.5;" width="1422" x="455" y="260.9609"/><text fill="#000000" font-family="sans-serif" font-size="13" font-weight="bold" lengthAdjust="spacing" textLength="25" x="470" y="274.0278">opt</text><text fill="#000000" font-family="sans-serif" font-size="11" font-weight="bold" lengthAdjust="spacing" textLength="148" x="540" y="273.1714">[EtatCompte == ACTIF]</text><line style="stroke:#181818;stroke-width:1.0;" x1="542.5" x2="589.5" y1="294.2266" y2="294.2266"/><line style="stroke:#181818;stroke-width:1.0;" x1="589.5" x2="589.5" y1="294.2266" y2="307.2266"/><line style="stroke:#181818;stroke-width:1.0;" x1="548.5" x2="589.5" y1="307.2266" y2="307.2266"/><polygon fill="#181818" points="558.5,303.2266,548.5,307.2266,558.5,311.2266,554.5,307.2266" style="stroke:#181818;stroke-width:1.0;"/><text fill="#000000" font-family="sans-serif" font-size="13" lengthAdjust="spacing" textLength="225" x="554.5" y="289.1606">r= chercher(nom_r&#233;seau) : R&#233;seau</text><path d="M465,327.2266 L535,327.2266 L535,334.3594 L525,344.3594 L465,344.3594 L465,327.2266 " fill="#EEEEEE" style="stroke:#000000;stroke-width:1.5;"/><rect fill="none" height="560.3203" style="stroke:#000000;stroke-width:1.5;" width="1402" x="465" y="327.2266"/><text fill="#000000" font-family="sans-serif" font-size="13" font-weight="bold" lengthAdjust="spacing" textLength="25" x="480" y="340.2935">opt</text><text fill="#000000" font-family="sans-serif" font-size="11" font-weight="bold" lengthAdjust="spacing" textLength="53" x="550" y="339.437">[r!=null]</text><polygon fill="#181818" points="880,361.4922,890,365.4922,880,369.4922,884,365.4922" style="stroke:#181818;stroke-width:1.0;"/><line style="stroke:#181818;stroke-width:1.0;" x1="547.5" x2="886" y1="365.4922" y2="365.4922"/><text fill="#000000" font-family="sans-serif" font-size="13" lengthAdjust="spacing" textLength="221" x="554.5" y="360.4263">ChercherEtatR&#233;seau(nom_r&#233;seau)</text><polygon fill="#181818" points="563.5,375.4922,553.5,379.4922,563.5,383.4922,559.5,379.4922" style="stroke:#181818;stroke-width:1.0;"/><line style="stroke:#181818;stroke-width:1.0;stroke-dasharray:2.0,2.0;" x1="557.5" x2="891" y1="379.4922" y2="379.4922"/><path d="M475,394.4922 L545,394.4922 L545,401.625 L535,411.625 L475,411.625 L475,394.4922 " fill="#EEEEEE" style="stroke:#000000;stroke-width:1.5;"/><rect fill="none" height="486.0547" style="stroke:#000000;stroke-width:1.5;" width="1382" x="475" y="394.4922"/><text fill="#000000" font-family="sans-serif" font-size="13" font-weight="bold" lengthAdjust="spacing" textLength="25" x="490" y="407.5591">opt</text><text fill="#000000" font-family="sans-serif" font-size="11" font-weight="bold" lengthAdjust="spacing" textLength="160" x="560" y="406.7026">[EtatR&#233;seau == OUVERT]</text><polygon fill="#181818" points="880,428.7578,890,432.7578,880,436.7578,884,432.7578" style="stroke:#181818;stroke-width:1.0;"/><line style="stroke:#181818;stroke-width:1.0;" x1="552.5" x2="886" y1="432.7578" y2="432.7578"/><text fill="#000000" font-family="sans-serif" font-size="13" lengthAdjust="spacing" textLength="277" x="559.5" y="427.6919">PosterMessage(contenu, pseudo_membre)</text><line style="stroke:#181818;stroke-width:1.0;" x1="902" x2="949" y1="456.8906" y2="456.8906"/><line style="stroke:#181818;stroke-width:1.0;" x1="949" x2="949" y1="456.8906" y2="469.8906"/><line style="stroke:#181818;stroke-width:1.0;" x1="908" x2="949" y1="469.8906" y2="469.8906"/><polygon fill="#181818" points="918,465.8906,908,469.8906,918,473.8906,914,469.8906" style="stroke:#181818;stroke-width:1.0;"/><text fill="#000000" font-family="sans-serif" font-size="13" lengthAdjust="spacing" textLength="197" x="914" y="451.8247">m=chercher(pseudo-membre)</text><path d="M838.5,489.8906 L908.5,489.8906 L908.5,497.0234 L898.5,507.0234 L838.5,507.0234 L838.5,489.8906 " fill="#EEEEEE" style="stroke:#000000;stroke-width:1.5;"/><rect fill="none" height="383.6563" style="stroke:#000000;stroke-width:1.5;" width="1008.5" x="838.5" y="489.8906"/><text fill="#000000" font-family="sans-serif" font-size="13" font-weight="bold" lengthAdjust="spacing" textLength="25" x="853.5" y="502.9575">opt</text><text fill="#000000" font-family="sans-serif" font-size="11" font-weight="bold" lengthAdjust="spacing" textLength="107" x="923.5" y="502.1011">[member != null]</text><polygon fill="#181818" points="1232,524.1563,1242,528.1563,1232,532.1563,1236,528.1563" style="stroke:#181818;stroke-width:1.0;"/><line style="stroke:#181818;stroke-width:1.0;" x1="907" x2="1238" y1="528.1563" y2="528.1563"/><text fill="#000000" font-family="sans-serif" font-size="13" lengthAdjust="spacing" textLength="256" x="914" y="523.0903">ChercherEtatMembre(pseudo_membre)</text><polygon fill="#181818" points="923,538.1563,913,542.1563,923,546.1563,919,542.1563" style="stroke:#181818;stroke-width:1.0;"/><line style="stroke:#181818;stroke-width:1.0;stroke-dasharray:2.0,2.0;" x1="917" x2="1243" y1="542.1563" y2="542.1563"/><path d="M848.5,557.1563 L912.5,557.1563 L912.5,564.2891 L902.5,574.2891 L848.5,574.2891 L848.5,557.1563 " fill="#EEEEEE" style="stroke:#000000;stroke-width:1.5;"/><rect fill="none" height="309.3906" style="stroke:#000000;stroke-width:1.5;" width="988.5" x="848.5" y="557.1563"/><text fill="#000000" font-family="sans-serif" font-size="13" font-weight="bold" lengthAdjust="spacing" textLength="19" x="863.5" y="570.2231">alt</text><text fill="#000000" font-family="sans-serif" font-size="11" font-weight="bold" lengthAdjust="spacing" textLength="164" x="927.5" y="569.3667">[etatMembre == membre]</text><polygon fill="#181818" points="1309,591.4219,1319,595.4219,1309,599.4219,1313,595.4219" style="stroke:#181818;stroke-width:1.0;"/><line style="stroke:#181818;stroke-width:1.0;" x1="912" x2="1315" y1="595.4219" y2="595.4219"/><text fill="#000000" font-family="sans-serif" font-size="13" lengthAdjust="spacing" textLength="385" x="919" y="590.356">m1=create(contenu, etatMessage== en Attente): Message</text><rect fill="#FFFFFF" height="30.2969" rx="2.5" ry="2.5" style="stroke:#181818;stroke-width:0.5;" width="104" x="1321" y="574.2891"/><text fill="#000000" font-family="sans-serif" font-size="14" lengthAdjust="spacing" text-decoration="underline" textLength="90" x="1328" y="594.2842">m1:Message</text><polygon fill="#181818" points="1423,632.7188,1433,636.7188,1423,640.7188,1427,636.7188" style="stroke:#181818;stroke-width:1.0;"/><line style="stroke:#181818;stroke-width:1.0;" x1="912" x2="1429" y1="636.7188" y2="636.7188"/><text fill="#000000" font-family="sans-serif" font-size="13" lengthAdjust="spacing" textLength="219" x="919" y="631.6528">"creerNotif ("contenu de la notif1")</text><rect fill="#FFFFFF" height="30.2969" rx="2.5" ry="2.5" style="stroke:#181818;stroke-width:0.5;" width="134" x="1435" y="615.5859"/><text fill="#000000" font-family="sans-serif" font-size="14" lengthAdjust="spacing" text-decoration="underline" textLength="120" x="1442" y="635.5811">notif1:Notification</text><polygon fill="#181818" points="923,658.8828,913,662.8828,923,666.8828,919,662.8828" style="stroke:#181818;stroke-width:1.0;"/><line style="stroke:#181818;stroke-width:1.0;stroke-dasharray:2.0,2.0;" x1="917" x2="1501" y1="662.8828" y2="662.8828"/><line style="stroke:#181818;stroke-width:1.0;" x1="912" x2="959" y1="687.0156" y2="687.0156"/><line style="stroke:#181818;stroke-width:1.0;" x1="959" x2="959" y1="687.0156" y2="700.0156"/><line style="stroke:#181818;stroke-width:1.0;" x1="918" x2="959" y1="700.0156" y2="700.0156"/><polygon fill="#181818" points="928,696.0156,918,700.0156,928,704.0156,924,700.0156" style="stroke:#181818;stroke-width:1.0;"/><text fill="#000000" font-family="sans-serif" font-size="13" lengthAdjust="spacing" textLength="313" x="924" y="681.9497">submitNotifDansProducteurMsgEnAttente(notif1)</text><line style="stroke:#000000;stroke-width:1.0;stroke-dasharray:2.0,2.0;" x1="848.5" x2="1837" y1="714.0156" y2="714.0156"/><text fill="#000000" font-family="sans-serif" font-size="11" font-weight="bold" lengthAdjust="spacing" textLength="187" x="853.5" y="724.2261">[etatMembre == mod&#233;rateur]</text><polygon fill="#181818" points="1567,744.9531,1577,748.9531,1567,752.9531,1571,748.9531" style="stroke:#181818;stroke-width:1.0;"/><line style="stroke:#181818;stroke-width:1.0;" x1="917" x2="1573" y1="748.9531" y2="748.9531"/><text fill="#000000" font-family="sans-serif" font-size="13" lengthAdjust="spacing" textLength="369" x="924" y="743.8872">m2=create(contenu, etatMessage== Accept&#233;): Message</text><rect fill="#FFFFFF" height="30.2969" rx="2.5" ry="2.5" style="stroke:#181818;stroke-width:0.5;" width="104" x="1579" y="727.8203"/><text fill="#000000" font-family="sans-serif" font-size="14" lengthAdjust="spacing" text-decoration="underline" textLength="90" x="1586" y="747.8154">m2:Message</text><polygon fill="#181818" points="1681,786.25,1691,790.25,1681,794.25,1685,790.25" style="stroke:#181818;stroke-width:1.0;"/><line style="stroke:#181818;stroke-width:1.0;" x1="917" x2="1687" y1="790.25" y2="790.25"/><text fill="#000000" font-family="sans-serif" font-size="13" lengthAdjust="spacing" textLength="224" x="924" y="785.1841">"creerNotif ("contenu de la notif2")"</text><rect fill="#FFFFFF" height="30.2969" rx="2.5" ry="2.5" style="stroke:#181818;stroke-width:0.5;" width="134" x="1693" y="769.1172"/><text fill="#000000" font-family="sans-serif" font-size="14" lengthAdjust="spacing" text-decoration="underline" textLength="120" x="1700" y="789.1123">notif2:Notification</text><polygon fill="#181818" points="928,812.4141,918,816.4141,928,820.4141,924,816.4141" style="stroke:#181818;stroke-width:1.0;"/><line style="stroke:#181818;stroke-width:1.0;stroke-dasharray:2.0,2.0;" x1="922" x2="1759" y1="816.4141" y2="816.4141"/><line style="stroke:#181818;stroke-width:1.0;" x1="917" x2="964" y1="840.5469" y2="840.5469"/><line style="stroke:#181818;stroke-width:1.0;" x1="964" x2="964" y1="840.5469" y2="853.5469"/><line style="stroke:#181818;stroke-width:1.0;" x1="923" x2="964" y1="853.5469" y2="853.5469"/><polygon fill="#181818" points="933,849.5469,923,853.5469,933,857.5469,929,853.5469" style="stroke:#181818;stroke-width:1.0;"/><text fill="#000000" font-family="sans-serif" font-size="13" lengthAdjust="spacing" textLength="285" x="929" y="835.481">submitNotifDansProducteurMsgPoste(notif2)</text><polygon fill="#181818" points="563.5,917.5469,553.5,921.5469,563.5,925.5469,559.5,921.5469" style="stroke:#181818;stroke-width:1.0;"/><line style="stroke:#181818;stroke-width:1.0;stroke-dasharray:2.0,2.0;" x1="557.5" x2="911" y1="921.5469" y2="921.5469"/><polygon fill="#181818" points="55.5,931.5469,45.5,935.5469,55.5,939.5469,51.5,935.5469" style="stroke:#181818;stroke-width:1.0;"/><line style="stroke:#181818;stroke-width:1.0;stroke-dasharray:2.0,2.0;" x1="49.5" x2="541.5" y1="935.5469" y2="935.5469"/><!--SRC=[dLLBRjim45sBfvXuOmc92rXB0oxWEYbGe6wDD6cN1aCpDXkHL4agI6_GOtHN-1o-IKzI_lI9RBT11IJKa6_cpRmPoiDBXZSASqvXJK7lTzygAWY5T5bWOMuNxxCXGiEv5FTiKobic1H0jbWP2jQjt3AB7w8jiyxtKfex-OJq0nCbjZ51qn1jQV6CiD96V8F9mqR9Igpdif0AlcoPeKTSPiH8THoCXfVx7Ibmp6PDDM1YQAKqKEFDikNJaAxtkw_xdq2Vc3P-1p_Q1GhSbckBn8uG1glLvDQmWcdi8gvM0y0QAaqLwWHrC3xXJ30jISJmFa1DhlSxJN4L0GSHgcDC1pIKtr4rMVYbfl86ii_mKzCm_4W95DITQeqtL5zuYwZzpkkaNN-xmbnOjSYh8NB5mUWrS3W_XmaifJPKBKAGb4XXgAWkeDIqMakVZgArARvp-ouaNyLICmGWI_CS3QcmRH9LKS3l7x_06OzsNZ9ljO5EmPmHq_WRf9F5APXDpZtSL-kBhQPscAboVscRIMPFEgs9RaHHQuR6mR7E1PWhlpgRUdg_bNY-olFD8zcLmMOkUMbebnOb5On2RYXnSLeOJASmcz-yUukIVWsgKuCJGSLMsAEeH_IPDmKSZcP0nCLHgxEfho3i985G-H7f5X7ZF2D6IMAHJI49rANKxR6rVBpzV7LzumwRQjGBXo-hlVpKAgy1d_RQEEfXEzsBDmgENQca5I3iGDt9f1R2iTOXkaeiF65wa6fIHng5R9kC01V6Ni7QqwaIl8BcaQ-JztWIXQbp7gCMsAv1b-CEuOhpyJI4RHKEUNYmpOCAc1bxO6ZcTFBRhfHsWeGqx7uy-U0MHlm79fA44uVsUGJJaWui9LNU0T91VQ7jDyb-XmDeuEMA3bujQCA4oGDTtN5cV91BBFHIoNNbF_qBlRaICUSqXCXGeqXyQA5fNt5fVnrKkEPzUEV2yBmlPNu8RtG_14VTyt_eFYE4bcQ_QrLtyzDE3FGQa9ziGFwy0VbB6f0Fia7JWVm_Ek1lRr0_Rs-UdQPrRVXN10UFsp-zqHhs3L3y7pynYDl5_OOr8jLaxTfP8Zq2z0S0]--></g></svg>