<?xml version="1.0" encoding="us-ascii" standalone="no"?><svg xmlns="http://www.w3.org/2000/svg" xmlns:xlink="http://www.w3.org/1999/xlink" contentStyleType="text/css" height="899px" preserveAspectRatio="none" style="width:1687px;height:899px;background:#FFFFFF;" version="1.1" viewBox="0 0 1687 899" width="1687px" zoomAndPan="magnify"><defs/><g><rect fill="#FFFFFF" height="770.8203" style="stroke:#181818;stroke-width:1.0;" width="10" x="558.5" y="112.4297"/><rect fill="#FFFFFF" height="709.5547" style="stroke:#181818;stroke-width:1.0;" width="10" x="563.5" y="173.6953"/><rect fill="#FFFFFF" height="637.2891" style="stroke:#181818;stroke-width:1.0;" width="10" x="568.5" y="245.9609"/><rect fill="#FFFFFF" height="576.0234" style="stroke:#181818;stroke-width:1.0;" width="10" x="573.5" y="307.2266"/><rect fill="#FFFFFF" height="288.9609" style="stroke:#181818;stroke-width:1.0;" width="10" x="578.5" y="594.2891"/><rect fill="#FFFFFF" height="65" style="stroke:#181818;stroke-width:1.0;" width="10" x="583.5" y="818.25"/><rect fill="#FFFFFF" height="651.2891" style="stroke:#181818;stroke-width:1.0;" width="10" x="867.5" y="231.9609"/><rect fill="#FFFFFF" height="407.3594" style="stroke:#181818;stroke-width:1.0;" width="10" x="872.5" y="475.8906"/><rect fill="#FFFFFF" height="378.2266" style="stroke:#181818;stroke-width:1.0;" width="10" x="1152.5" y="505.0234"/><rect fill="#FFFFFF" height="230.6953" style="stroke:#181818;stroke-width:1.0;" width="10" x="1268" y="652.5547"/><rect fill="#FFFFFF" height="79" style="stroke:#181818;stroke-width:1.0;" width="10" x="1273" y="804.25"/><rect fill="#FFFFFF" height="163.4297" style="stroke:#181818;stroke-width:1.0;" width="10" x="1382.5" y="719.8203"/><rect fill="#FFFFFF" height="124.2969" style="stroke:#181818;stroke-width:1.0;" width="10" x="1527.5" y="758.9531"/><rect fill="none" height="747.8203" style="stroke:#000000;stroke-width:1.5;" width="1240.5" x="441" y="127.4297"/><rect fill="none" height="674.5547" style="stroke:#000000;stroke-width:1.5;" width="1220.5" x="451" y="193.6953"/><rect fill="none" height="600.2891" style="stroke:#000000;stroke-width:1.5;" width="1200.5" x="461" y="260.9609"/><rect fill="none" height="527.0234" style="stroke:#000000;stroke-width:1.5;" width="1180.5" x="471" y="327.2266"/><rect fill="none" height="409.625" style="stroke:#000000;stroke-width:1.5;" width="1160.5" x="481" y="437.625"/><rect fill="none" height="292.2266" style="stroke:#000000;stroke-width:1.5;" width="1140.5" x="491" y="548.0234"/><rect fill="none" height="218.9609" style="stroke:#000000;stroke-width:1.5;" width="1120.5" x="501" y="614.2891"/><rect fill="none" height="144.6953" style="stroke:#000000;stroke-width:1.5;" width="1100.5" x="511" y="681.5547"/><line style="stroke:#181818;stroke-width:0.5;stroke-dasharray:5.0,5.0;" x1="44" x2="44" y1="81.2969" y2="892.25"/><line style="stroke:#181818;stroke-width:0.5;stroke-dasharray:5.0,5.0;" x1="563" x2="563" y1="81.2969" y2="892.25"/><line style="stroke:#181818;stroke-width:0.5;stroke-dasharray:5.0,5.0;" x1="872.5" x2="872.5" y1="81.2969" y2="892.25"/><line style="stroke:#181818;stroke-width:0.5;stroke-dasharray:5.0,5.0;" x1="1157.5" x2="1157.5" y1="81.2969" y2="892.25"/><line style="stroke:#181818;stroke-width:0.5;stroke-dasharray:5.0,5.0;" x1="1272.5" x2="1272.5" y1="81.2969" y2="892.25"/><line style="stroke:#181818;stroke-width:0.5;stroke-dasharray:5.0,5.0;" x1="1387.5" x2="1387.5" y1="81.2969" y2="892.25"/><line style="stroke:#181818;stroke-width:0.5;stroke-dasharray:5.0,5.0;" x1="1532.5" x2="1532.5" y1="758.4688" y2="892.25"/><text fill="#000000" font-family="sans-serif" font-size="14" lengthAdjust="spacing" text-decoration="underline" textLength="73" x="5" y="77.9951">:Utilisateur</text><ellipse cx="44.5" cy="13.5" fill="#FFFFFF" rx="8" ry="8" style="stroke:#181818;stroke-width:0.5;"/><path d="M44.5,21.5 L44.5,48.5 M31.5,29.5 L57.5,29.5 M44.5,48.5 L31.5,63.5 M44.5,48.5 L57.5,63.5 " fill="none" style="stroke:#181818;stroke-width:0.5;"/><rect fill="#FFFFFF" height="30.2969" rx="2.5" ry="2.5" style="stroke:#181818;stroke-width:0.5;" width="85" x="521" y="50"/><text fill="#000000" font-family="sans-serif" font-size="14" lengthAdjust="spacing" text-decoration="underline" textLength="71" x="528" y="69.9951">m:minisoc</text><rect fill="#FFFFFF" height="30.2969" rx="2.5" ry="2.5" style="stroke:#181818;stroke-width:0.5;" width="96" x="824.5" y="50"/><text fill="#000000" font-family="sans-serif" font-size="14" lengthAdjust="spacing" text-decoration="underline" textLength="82" x="831.5" y="69.9951">u:Utilisateur</text><rect fill="#FFFFFF" height="30.2969" rx="2.5" ry="2.5" style="stroke:#181818;stroke-width:0.5;" width="134" x="1090.5" y="50"/><text fill="#000000" font-family="sans-serif" font-size="14" lengthAdjust="spacing" text-decoration="underline" textLength="120" x="1097.5" y="69.9951">member:Member</text><rect fill="#FFFFFF" height="30.2969" rx="2.5" ry="2.5" style="stroke:#181818;stroke-width:0.5;" width="77" x="1234.5" y="50"/><text fill="#000000" font-family="sans-serif" font-size="14" lengthAdjust="spacing" text-decoration="underline" textLength="63" x="1241.5" y="69.9951">r:R&#233;seau</text><rect fill="#FFFFFF" height="30.2969" rx="2.5" ry="2.5" style="stroke:#181818;stroke-width:0.5;" width="132" x="1321.5" y="50"/><text fill="#000000" font-family="sans-serif" font-size="14" lengthAdjust="spacing" text-decoration="underline" textLength="114" x="1328.5" y="69.9951">mess : Message</text><rect fill="#FFFFFF" height="770.8203" style="stroke:#181818;stroke-width:1.0;" width="10" x="558.5" y="112.4297"/><rect fill="#FFFFFF" height="709.5547" style="stroke:#181818;stroke-width:1.0;" width="10" x="563.5" y="173.6953"/><rect fill="#FFFFFF" height="637.2891" style="stroke:#181818;stroke-width:1.0;" width="10" x="568.5" y="245.9609"/><rect fill="#FFFFFF" height="576.0234" style="stroke:#181818;stroke-width:1.0;" width="10" x="573.5" y="307.2266"/><rect fill="#FFFFFF" height="288.9609" style="stroke:#181818;stroke-width:1.0;" width="10" x="578.5" y="594.2891"/><rect fill="#FFFFFF" height="65" style="stroke:#181818;stroke-width:1.0;" width="10" x="583.5" y="818.25"/><rect fill="#FFFFFF" height="651.2891" style="stroke:#181818;stroke-width:1.0;" width="10" x="867.5" y="231.9609"/><rect fill="#FFFFFF" height="407.3594" style="stroke:#181818;stroke-width:1.0;" width="10" x="872.5" y="475.8906"/><rect fill="#FFFFFF" height="378.2266" style="stroke:#181818;stroke-width:1.0;" width="10" x="1152.5" y="505.0234"/><rect fill="#FFFFFF" height="230.6953" style="stroke:#181818;stroke-width:1.0;" width="10" x="1268" y="652.5547"/><rect fill="#FFFFFF" height="79" style="stroke:#181818;stroke-width:1.0;" width="10" x="1273" y="804.25"/><rect fill="#FFFFFF" height="163.4297" style="stroke:#181818;stroke-width:1.0;" width="10" x="1382.5" y="719.8203"/><rect fill="#FFFFFF" height="124.2969" style="stroke:#181818;stroke-width:1.0;" width="10" x="1527.5" y="758.9531"/><polygon fill="#181818" points="546.5,108.4297,556.5,112.4297,546.5,116.4297,550.5,112.4297" style="stroke:#181818;stroke-width:1.0;"/><line style="stroke:#181818;stroke-width:1.0;" x1="44.5" x2="552.5" y1="112.4297" y2="112.4297"/><text fill="#000000" font-family="sans-serif" font-size="13" lengthAdjust="spacing" textLength="495" x="51.5" y="107.3638">AccepterMessage( pseudo_membre, pseudonyme, idMessage, nom_R&#233;seau)</text><path d="M441,127.4297 L511,127.4297 L511,134.5625 L501,144.5625 L441,144.5625 L441,127.4297 " fill="#EEEEEE" style="stroke:#000000;stroke-width:1.5;"/><rect fill="none" height="747.8203" style="stroke:#000000;stroke-width:1.5;" width="1240.5" x="441" y="127.4297"/><text fill="#000000" font-family="sans-serif" font-size="13" font-weight="bold" lengthAdjust="spacing" textLength="25" x="456" y="140.4966">opt</text><text fill="#000000" font-family="sans-serif" font-size="11" font-weight="bold" lengthAdjust="spacing" textLength="939" x="526" y="139.6401">[pseudo_membre (non null &#8743; non vide) &#8743; pseudonyme (non null &#8743; non vide)&#8743; idMessage (non null &#8743; non vide)&#8743; nom_R&#233;seau (non null &#8743; non vide)]</text><line style="stroke:#181818;stroke-width:1.0;" x1="568.5" x2="615.5" y1="160.6953" y2="160.6953"/><line style="stroke:#181818;stroke-width:1.0;" x1="615.5" x2="615.5" y1="160.6953" y2="173.6953"/><line style="stroke:#181818;stroke-width:1.0;" x1="574.5" x2="615.5" y1="173.6953" y2="173.6953"/><polygon fill="#181818" points="584.5,169.6953,574.5,173.6953,584.5,177.6953,580.5,173.6953" style="stroke:#181818;stroke-width:1.0;"/><text fill="#000000" font-family="sans-serif" font-size="13" lengthAdjust="spacing" textLength="249" x="580.5" y="155.6294">u= chercher(pseudonyme) : Utilisateur</text><path d="M451,193.6953 L521,193.6953 L521,200.8281 L511,210.8281 L451,210.8281 L451,193.6953 " fill="#EEEEEE" style="stroke:#000000;stroke-width:1.5;"/><rect fill="none" height="674.5547" style="stroke:#000000;stroke-width:1.5;" width="1220.5" x="451" y="193.6953"/><text fill="#000000" font-family="sans-serif" font-size="13" font-weight="bold" lengthAdjust="spacing" textLength="25" x="466" y="206.7622">opt</text><text fill="#000000" font-family="sans-serif" font-size="11" font-weight="bold" lengthAdjust="spacing" textLength="60" x="536" y="205.9058">[u!= null]</text><polygon fill="#181818" points="855.5,227.9609,865.5,231.9609,855.5,235.9609,859.5,231.9609" style="stroke:#181818;stroke-width:1.0;"/><line style="stroke:#181818;stroke-width:1.0;" x1="573.5" x2="861.5" y1="231.9609" y2="231.9609"/><text fill="#000000" font-family="sans-serif" font-size="13" lengthAdjust="spacing" textLength="228" x="580.5" y="226.895">ChercherEtatCompte(pseudonyme)</text><polygon fill="#181818" points="589.5,241.9609,579.5,245.9609,589.5,249.9609,585.5,245.9609" style="stroke:#181818;stroke-width:1.0;"/><line style="stroke:#181818;stroke-width:1.0;stroke-dasharray:2.0,2.0;" x1="583.5" x2="866.5" y1="245.9609" y2="245.9609"/><path d="M461,260.9609 L531,260.9609 L531,268.0938 L521,278.0938 L461,278.0938 L461,260.9609 " fill="#EEEEEE" style="stroke:#000000;stroke-width:1.5;"/><rect fill="none" height="600.2891" style="stroke:#000000;stroke-width:1.5;" width="1200.5" x="461" y="260.9609"/><text fill="#000000" font-family="sans-serif" font-size="13" font-weight="bold" lengthAdjust="spacing" textLength="25" x="476" y="274.0278">opt</text><text fill="#000000" font-family="sans-serif" font-size="11" font-weight="bold" lengthAdjust="spacing" textLength="148" x="546" y="273.1714">[EtatCompte == ACTIF]</text><line style="stroke:#181818;stroke-width:1.0;" x1="578.5" x2="625.5" y1="294.2266" y2="294.2266"/><line style="stroke:#181818;stroke-width:1.0;" x1="625.5" x2="625.5" y1="294.2266" y2="307.2266"/><line style="stroke:#181818;stroke-width:1.0;" x1="584.5" x2="625.5" y1="307.2266" y2="307.2266"/><polygon fill="#181818" points="594.5,303.2266,584.5,307.2266,594.5,311.2266,590.5,307.2266" style="stroke:#181818;stroke-width:1.0;"/><text fill="#000000" font-family="sans-serif" font-size="13" lengthAdjust="spacing" textLength="197" x="590.5" y="289.1606">m=chercher(pseudo-membre)</text><path d="M471,327.2266 L541,327.2266 L541,334.3594 L531,344.3594 L471,344.3594 L471,327.2266 " fill="#EEEEEE" style="stroke:#000000;stroke-width:1.5;"/><rect fill="none" height="527.0234" style="stroke:#000000;stroke-width:1.5;" width="1180.5" x="471" y="327.2266"/><text fill="#000000" font-family="sans-serif" font-size="13" font-weight="bold" lengthAdjust="spacing" textLength="25" x="486" y="340.2935">opt</text><text fill="#000000" font-family="sans-serif" font-size="11" font-weight="bold" lengthAdjust="spacing" textLength="107" x="556" y="339.437">[member != null]</text><polygon fill="#181818" points="855.5,361.4922,865.5,365.4922,855.5,369.4922,859.5,365.4922" style="stroke:#181818;stroke-width:1.0;"/><line style="stroke:#181818;stroke-width:1.0;" x1="583.5" x2="861.5" y1="365.4922" y2="365.4922"/><text fill="#000000" font-family="sans-serif" font-size="13" lengthAdjust="spacing" textLength="260" x="590.5" y="360.4263">ChercherEtatMembre (pseudo_membre)</text><polygon fill="#181818" points="1145.5,390.625,1155.5,394.625,1145.5,398.625,1149.5,394.625" style="stroke:#181818;stroke-width:1.0;"/><line style="stroke:#181818;stroke-width:1.0;" x1="877.5" x2="1151.5" y1="394.625" y2="394.625"/><text fill="#000000" font-family="sans-serif" font-size="13" lengthAdjust="spacing" textLength="256" x="884.5" y="389.5591">ChercherEtatMembre(pseudo_membre)</text><polygon fill="#181818" points="888.5,404.625,878.5,408.625,888.5,412.625,884.5,408.625" style="stroke:#181818;stroke-width:1.0;"/><line style="stroke:#181818;stroke-width:1.0;stroke-dasharray:2.0,2.0;" x1="882.5" x2="1156.5" y1="408.625" y2="408.625"/><polygon fill="#181818" points="594.5,418.625,584.5,422.625,594.5,426.625,590.5,422.625" style="stroke:#181818;stroke-width:1.0;"/><line style="stroke:#181818;stroke-width:1.0;stroke-dasharray:2.0,2.0;" x1="588.5" x2="866.5" y1="422.625" y2="422.625"/><path d="M481,437.625 L551,437.625 L551,444.7578 L541,454.7578 L481,454.7578 L481,437.625 " fill="#EEEEEE" style="stroke:#000000;stroke-width:1.5;"/><rect fill="none" height="409.625" style="stroke:#000000;stroke-width:1.5;" width="1160.5" x="481" y="437.625"/><text fill="#000000" font-family="sans-serif" font-size="13" font-weight="bold" lengthAdjust="spacing" textLength="25" x="496" y="450.6919">opt</text><text fill="#000000" font-family="sans-serif" font-size="11" font-weight="bold" lengthAdjust="spacing" textLength="187" x="566" y="449.8354">[etatMembre == mod&#233;rateur]</text><polygon fill="#181818" points="860.5,471.8906,870.5,475.8906,860.5,479.8906,864.5,475.8906" style="stroke:#181818;stroke-width:1.0;"/><line style="stroke:#181818;stroke-width:1.0;" x1="583.5" x2="866.5" y1="475.8906" y2="475.8906"/><text fill="#000000" font-family="sans-serif" font-size="13" lengthAdjust="spacing" textLength="237" x="590.5" y="470.8247">mess=chercherMessage(idMessage)</text><polygon fill="#181818" points="1140.5,501.0234,1150.5,505.0234,1140.5,509.0234,1144.5,505.0234" style="stroke:#181818;stroke-width:1.0;"/><line style="stroke:#181818;stroke-width:1.0;" x1="882.5" x2="1146.5" y1="505.0234" y2="505.0234"/><text fill="#000000" font-family="sans-serif" font-size="13" lengthAdjust="spacing" textLength="237" x="889.5" y="499.9575">mess=chercherMessage(idMessage)</text><polygon fill="#181818" points="893.5,515.0234,883.5,519.0234,893.5,523.0234,889.5,519.0234" style="stroke:#181818;stroke-width:1.0;"/><line style="stroke:#181818;stroke-width:1.0;stroke-dasharray:2.0,2.0;" x1="887.5" x2="1151.5" y1="519.0234" y2="519.0234"/><polygon fill="#181818" points="594.5,529.0234,584.5,533.0234,594.5,537.0234,590.5,533.0234" style="stroke:#181818;stroke-width:1.0;"/><line style="stroke:#181818;stroke-width:1.0;stroke-dasharray:2.0,2.0;" x1="588.5" x2="871.5" y1="533.0234" y2="533.0234"/><path d="M491,548.0234 L561,548.0234 L561,555.1563 L551,565.1563 L491,565.1563 L491,548.0234 " fill="#EEEEEE" style="stroke:#000000;stroke-width:1.5;"/><rect fill="none" height="292.2266" style="stroke:#000000;stroke-width:1.5;" width="1140.5" x="491" y="548.0234"/><text fill="#000000" font-family="sans-serif" font-size="13" font-weight="bold" lengthAdjust="spacing" textLength="25" x="506" y="561.0903">opt</text><text fill="#000000" font-family="sans-serif" font-size="11" font-weight="bold" lengthAdjust="spacing" textLength="89" x="576" y="560.2339">[mess != null]</text><line style="stroke:#181818;stroke-width:1.0;" x1="583.5" x2="630.5" y1="581.2891" y2="581.2891"/><line style="stroke:#181818;stroke-width:1.0;" x1="630.5" x2="630.5" y1="581.2891" y2="594.2891"/><line style="stroke:#181818;stroke-width:1.0;" x1="589.5" x2="630.5" y1="594.2891" y2="594.2891"/><polygon fill="#181818" points="599.5,590.2891,589.5,594.2891,599.5,598.2891,595.5,594.2891" style="stroke:#181818;stroke-width:1.0;"/><text fill="#000000" font-family="sans-serif" font-size="13" lengthAdjust="spacing" textLength="209" x="595.5" y="576.2231">r= chercherR&#233;seau(nomR&#233;seau)</text><path d="M501,614.2891 L571,614.2891 L571,621.4219 L561,631.4219 L501,631.4219 L501,614.2891 " fill="#EEEEEE" style="stroke:#000000;stroke-width:1.5;"/><rect fill="none" height="218.9609" style="stroke:#000000;stroke-width:1.5;" width="1120.5" x="501" y="614.2891"/><text fill="#000000" font-family="sans-serif" font-size="13" font-weight="bold" lengthAdjust="spacing" textLength="25" x="516" y="627.356">opt</text><text fill="#000000" font-family="sans-serif" font-size="11" font-weight="bold" lengthAdjust="spacing" textLength="61" x="586" y="626.4995">[r != null]</text><polygon fill="#181818" points="1256,648.5547,1266,652.5547,1256,656.5547,1260,652.5547" style="stroke:#181818;stroke-width:1.0;"/><line style="stroke:#181818;stroke-width:1.0;" x1="588.5" x2="1262" y1="652.5547" y2="652.5547"/><text fill="#000000" font-family="sans-serif" font-size="13" lengthAdjust="spacing" textLength="217" x="595.5" y="647.4888">ChercherEtatReseau(nomReseau)</text><polygon fill="#181818" points="599.5,662.5547,589.5,666.5547,599.5,670.5547,595.5,666.5547" style="stroke:#181818;stroke-width:1.0;"/><line style="stroke:#181818;stroke-width:1.0;stroke-dasharray:2.0,2.0;" x1="593.5" x2="1267" y1="666.5547" y2="666.5547"/><path d="M511,681.5547 L581,681.5547 L581,688.6875 L571,698.6875 L511,698.6875 L511,681.5547 " fill="#EEEEEE" style="stroke:#000000;stroke-width:1.5;"/><rect fill="none" height="144.6953" style="stroke:#000000;stroke-width:1.5;" width="1100.5" x="511" y="681.5547"/><text fill="#000000" font-family="sans-serif" font-size="13" font-weight="bold" lengthAdjust="spacing" textLength="25" x="526" y="694.6216">opt</text><text fill="#000000" font-family="sans-serif" font-size="11" font-weight="bold" lengthAdjust="spacing" textLength="160" x="596" y="693.7651">[EtatReseau == OUVERT]</text><polygon fill="#181818" points="1370.5,715.8203,1380.5,719.8203,1370.5,723.8203,1374.5,719.8203" style="stroke:#181818;stroke-width:1.0;"/><line style="stroke:#181818;stroke-width:1.0;" x1="588.5" x2="1376.5" y1="719.8203" y2="719.8203"/><text fill="#000000" font-family="sans-serif" font-size="13" lengthAdjust="spacing" textLength="123" x="595.5" y="714.7544">accepterMessage()</text><polygon fill="#181818" points="1451.5,744.9531,1461.5,748.9531,1451.5,752.9531,1455.5,748.9531" style="stroke:#181818;stroke-width:1.0;"/><line style="stroke:#181818;stroke-width:1.0;" x1="588.5" x2="1457.5" y1="748.9531" y2="748.9531"/><text fill="#000000" font-family="sans-serif" font-size="13" lengthAdjust="spacing" textLength="246" x="595.5" y="743.8872">CreerNotif("contenu de la notification")</text><rect fill="#FFFFFF" height="30.2969" rx="2.5" ry="2.5" style="stroke:#181818;stroke-width:0.5;" width="138" x="1463.5" y="727.8203"/><text fill="#000000" font-family="sans-serif" font-size="14" lengthAdjust="spacing" text-decoration="underline" textLength="124" x="1470.5" y="747.8154">notif1: Notification</text><polygon fill="#181818" points="599.5,771.1172,589.5,775.1172,599.5,779.1172,595.5,775.1172" style="stroke:#181818;stroke-width:1.0;"/><line style="stroke:#181818;stroke-width:1.0;stroke-dasharray:2.0,2.0;" x1="593.5" x2="1526.5" y1="775.1172" y2="775.1172"/><polygon fill="#181818" points="1261,800.25,1271,804.25,1261,808.25,1265,804.25" style="stroke:#181818;stroke-width:1.0;"/><line style="stroke:#181818;stroke-width:1.0;" x1="588.5" x2="1267" y1="804.25" y2="804.25"/><text fill="#000000" font-family="sans-serif" font-size="13" lengthAdjust="spacing" textLength="287" x="595.5" y="799.1841">SubmitNotifDansProducteurMsgPoste(notif1)</text><polygon fill="#181818" points="604.5,814.25,594.5,818.25,604.5,822.25,600.5,818.25" style="stroke:#181818;stroke-width:1.0;"/><line style="stroke:#181818;stroke-width:1.0;stroke-dasharray:2.0,2.0;" x1="598.5" x2="1272" y1="818.25" y2="818.25"/><!--SRC=[ZLNRRXen47rUVyMK5q0XbVgAHAIKf5AbqgAaQH-HutN0pTgclaJf7_Gp-bRn7Vn9lwJZozw0L5s1bh7Fp9avCpR3Aq7NXah9eUHWzxlldYl6ORIig79tYm_Z8I73kLOFOkqDTK8hO1jg70Tqssu4ueTa8z3vGMjthv-9VHHgIp4cM9wYBH4lcDXYnBUKFQwDzggSwqeR-BeHZfzmkMHEczDWChpQxrX5SpObjq2PuzvOu2wQsvRFmgZSxxxjVm5_5jR55Vg4BwXeMouMIGCX35QhwPqJbR0qH5oj1a0jUCiDwGGDC3cLGWchMSR8Gu2PtkntbbEV0KSH_2cc8nekxxcPBkAhfeh6CT9QcC82NtJDeS5QI_0PtZQjfK-SGSNJ7aBj95hCx7THKHiceIlX17LbhuSao03d5o3Xx0oPBXdZMyTDPXp1rd9VwfYouPDigXyIVuioeoQWj5nbPSO4G6zTtn562hkgV5N1dv-_8HXFE5xZQBKnNu85es7x5wYJnqimJ2yyCXOTQ_Opd7vkmdVKvZB6dKulinip7CtKQJZLwWGB0lXNiqWVbuh8voFVF9DTE-hcMgBSNLfIU3XFkP4Yn6bXC9l1vVpp-tUaEAn1pWvAE4_2ZpEqpJiF7voQlgBDFgr0NKFUAS97XaeEwbZaDlUwZkH5TiEQBchcOxzZjw9E84ZXuqAM1UgWJQgyvKU1fCQxmRGzgy4TfoHUh2A9XuFLw5TFVZDlAPty-2XvIkt_V7lSnsKLK1UMhQm-dlj6-wBeX92TqshQoSrJZqClcuCO7F7JzXx5l-6zwwk8f86owJNKVeagrzbjMeeHgNZ351nCswAGSf6AQLr2VpxTVRc- -Lnxz2VJskQkwrvr3JRL7hI9ET63oshS8fiQUWnAE_7mPWeVmrkmU3DcehJLyqjqUIE9O3WtqNaqO5evhdouL_5VHtKY3iQzA7M4ZZH5lvjPubj_BuMBuQ-eiakZIn__0nTslTGMhuaKAPTPr6g7YwBe7WgkoYuFcWHwW1OHVgI7D2CMyNbU8_1mcJJkG0wE5I5_0G00]--></g></svg>