<?xml version="1.0" encoding="us-ascii" standalone="no"?><svg xmlns="http://www.w3.org/2000/svg" xmlns:xlink="http://www.w3.org/1999/xlink" contentStyleType="text/css" height="666px" preserveAspectRatio="none" style="width:759px;height:666px;background:#FFFFFF;" version="1.1" viewBox="0 0 759 666" width="759px" zoomAndPan="magnify"><defs/><g><g id="EnCr&#233;ation"><rect fill="#F1F1F1" height="50.2656" rx="12.5" ry="12.5" style="stroke:#181818;stroke-width:0.5;" width="155" x="286.75" y="7"/><line style="stroke:#181818;stroke-width:0.5;" x1="286.75" x2="441.75" y1="33.2969" y2="33.2969"/><text fill="#000000" font-family="sans-serif" font-size="14" lengthAdjust="spacing" textLength="76" x="326.25" y="24.9951">EnCr&#233;ation</text><text fill="#000000" font-family="sans-serif" font-size="12" lengthAdjust="spacing" textLength="135" x="291.75" y="49.4355">entry : constructeur()</text></g><g id="EnDestruction"><rect fill="#F1F1F1" height="50.2656" rx="12.5" ry="12.5" style="stroke:#181818;stroke-width:0.5;" width="148" x="185.25" y="610"/><line style="stroke:#181818;stroke-width:0.5;" x1="185.25" x2="333.25" y1="636.2969" y2="636.2969"/><text fill="#000000" font-family="sans-serif" font-size="14" lengthAdjust="spacing" textLength="99" x="209.75" y="627.9951">EnDestruction</text><text fill="#000000" font-family="sans-serif" font-size="12" lengthAdjust="spacing" textLength="128" x="190.25" y="652.4355">entry : destructeur()</text></g><g id="enAttente"><rect fill="#F1F1F1" height="50" rx="12.5" ry="12.5" style="stroke:#181818;stroke-width:0.5;" width="89" x="284.75" y="134"/><line style="stroke:#181818;stroke-width:0.5;" x1="284.75" x2="373.75" y1="160.2969" y2="160.2969"/><text fill="#000000" font-family="sans-serif" font-size="14" lengthAdjust="spacing" textLength="69" x="294.75" y="151.9951">EnAttente</text></g><g id="Refus&#233;"><rect fill="#F1F1F1" height="50" rx="12.5" ry="12.5" style="stroke:#181818;stroke-width:0.5;" width="69" x="224.75" y="379.5"/><line style="stroke:#181818;stroke-width:0.5;" x1="224.75" x2="293.75" y1="405.7969" y2="405.7969"/><text fill="#000000" font-family="sans-serif" font-size="14" lengthAdjust="spacing" textLength="49" x="234.75" y="397.4951">Refus&#233;</text></g><path d="M341.75,276 L733.23,276 A12.5,12.5 0 0 1 745.73,288.5 L745.73,302.2969 L329.25,302.2969 L329.25,288.5 A12.5,12.5 0 0 1 341.75,276 " fill="#F1F1F1" style="stroke:#F1F1F1;stroke-width:1.0;"/><rect fill="none" height="257.2969" rx="12.5" ry="12.5" style="stroke:#181818;stroke-width:0.5;" width="416.48" x="329.25" y="276"/><line style="stroke:#181818;stroke-width:0.5;" x1="329.25" x2="745.73" y1="302.2969" y2="302.2969"/><text fill="#000000" font-family="sans-serif" font-size="14" lengthAdjust="spacing" textLength="57" x="508.99" y="293.9951">Accept&#233;</text><ellipse cx="450.73" cy="323.2969" fill="#222222" rx="10" ry="10" style="stroke:#222222;stroke-width:1.0;"/><g id="Accept&#233;.visible"><rect fill="#F1F1F1" height="50" rx="12.5" ry="12.5" style="stroke:#181818;stroke-width:0.5;" width="62" x="419.73" y="370.2969"/><line style="stroke:#181818;stroke-width:0.5;" x1="419.73" x2="481.73" y1="396.5938" y2="396.5938"/><text fill="#000000" font-family="sans-serif" font-size="14" lengthAdjust="spacing" textLength="42" x="429.73" y="388.292">visible</text></g><g id="Accept&#233;.cach&#233;"><rect fill="#F1F1F1" height="50" rx="12.5" ry="12.5" style="stroke:#181818;stroke-width:0.5;" width="62" x="419.73" y="473.2969"/><line style="stroke:#181818;stroke-width:0.5;" x1="419.73" x2="481.73" y1="499.5938" y2="499.5938"/><text fill="#000000" font-family="sans-serif" font-size="14" lengthAdjust="spacing" textLength="42" x="429.73" y="491.292">cach&#233;</text></g><!--link *start*Accept? to visible--><g id="link_*start*Accept&#233;_visible"><path d="M450.73,333.4469 C450.73,342.7169 450.73,351.4369 450.73,364.0769 " fill="none" id="*start*Accept&#233;-to-visible" style="stroke:#181818;stroke-width:1.0;"/><polygon fill="#181818" points="450.73,370.0769,454.73,361.0769,450.73,365.0769,446.73,361.0769,450.73,370.0769" style="stroke:#181818;stroke-width:1.0;"/></g><!--link visible to cach?--><g id="link_visible_cach&#233;"><path d="M419.49,401.4069 C398.11,406.6969 371.28,417.3069 357.73,438.2969 C340.25,465.3669 380.254,480.8824 413.624,489.3424 " fill="none" id="visible-to-cach&#233;" style="stroke:#181818;stroke-width:1.0;"/><polygon fill="#181818" points="419.44,490.8169,411.699,484.7278,414.5933,489.5881,409.733,492.4825,419.44,490.8169" style="stroke:#181818;stroke-width:1.0;"/><text fill="#000000" font-family="sans-serif" font-size="13" lengthAdjust="spacing" textLength="164" x="358.73" y="451.3638">MessageCach&#233;()/cacher()</text></g><!--link cach? to visible--><g id="link_cach&#233;_visible"><path d="M481.76,487.2069 C506.95,477.1769 536.37,460.1569 523.73,438.2969 C514.72,422.7269 503.0487,414.7579 487.6087,408.2479 " fill="none" id="cach&#233;-to-visible" style="stroke:#181818;stroke-width:1.0;"/><polygon fill="#181818" points="482.08,405.9169,488.819,413.0992,486.6872,407.8594,491.927,405.7277,482.08,405.9169" style="stroke:#181818;stroke-width:1.0;"/><text fill="#000000" font-family="sans-serif" font-size="13" lengthAdjust="spacing" textLength="208" x="527.73" y="451.3638">MessageVisible()/RendreVisible()</text></g><g id="elem_c"><polygon fill="#F1F1F1" points="489.25,20,501.25,32,489.25,44,477.25,32,489.25,20" style="stroke:#181818;stroke-width:0.5;"/></g><ellipse cx="241.25" cy="32" fill="#222222" rx="10" ry="10" style="stroke:#222222;stroke-width:1.0;"/><ellipse cx="139.25" cy="635" fill="none" rx="11" ry="11" style="stroke:#222222;stroke-width:1.0;"/><ellipse cx="139.25" cy="635" fill="#222222" rx="6" ry="6" style="stroke:#222222;stroke-width:1.0;"/><!--link *start* to EnCr?ation--><g id="link_*start*_EnCr&#233;ation"><path d="M251.34,32 C263.1,32 268.86,32 280.62,32 " fill="none" id="*start*-to-EnCr&#233;ation" style="stroke:#181818;stroke-width:1.0;"/><polygon fill="#181818" points="286.62,32,277.62,28,281.62,32,277.62,36,286.62,32" style="stroke:#181818;stroke-width:1.0;"/></g><!--link EnCr?ation to c--><g id="link_EnCr&#233;ation_c"><path d="M441.88,32 C453.6,32 459.32,32 471.04,32 " fill="none" id="EnCr&#233;ation-to-c" style="stroke:#181818;stroke-width:1.0;"/><polygon fill="#181818" points="477.04,32,468.04,28,472.04,32,468.04,36,477.04,32" style="stroke:#181818;stroke-width:1.0;"/></g><!--link c to Accept?--><g id="link_c_Accept&#233;"><path d="M490.84,42.79 C495.23,69.94 507.73,148.47 516.25,214 C518.84,233.94 520.6962,249.1291 523.0662,269.7891 " fill="none" id="c-to-Accept&#233;" style="stroke:#181818;stroke-width:1.0;"/><polygon fill="#181818" points="523.75,275.75,526.6982,266.3528,523.1802,270.7826,518.7504,267.2645,523.75,275.75" style="stroke:#181818;stroke-width:1.0;"/><text fill="#000000" font-family="sans-serif" font-size="13" lengthAdjust="spacing" textLength="206" x="512.25" y="163.5669">[if &#233;tatMembre == mod&#233;rateur]</text></g><!--link c to enAttente--><g id="link_c_enAttente"><path d="M482.83,38.18 C476.77,43.06 467.42,50.56 459.25,57 C425.69,83.45 391.7388,109.7927 365.3488,130.1727 " fill="none" id="c-to-enAttente" style="stroke:#181818;stroke-width:1.0;"/><polygon fill="#181818" points="360.6,133.84,370.168,131.5049,364.5573,130.7839,365.2783,125.1732,360.6,133.84" style="stroke:#181818;stroke-width:1.0;"/><text fill="#000000" font-family="sans-serif" font-size="13" lengthAdjust="spacing" textLength="36" x="420.25" y="100.0669">[else]</text></g><!--link enAttente to Accept?--><g id="link_enAttente_Accept&#233;"><path d="M347.64,184.02 C361.12,201.44 380,225.44 397.25,246 C405.47,255.81 410.1471,261.3401 418.8571,271.4201 " fill="none" id="enAttente-to-Accept&#233;" style="stroke:#181818;stroke-width:1.0;"/><polygon fill="#181818" points="422.78,275.96,419.9223,266.5349,419.5109,272.1767,413.869,271.7654,422.78,275.96" style="stroke:#181818;stroke-width:1.0;"/><text fill="#000000" font-family="sans-serif" font-size="13" lengthAdjust="spacing" textLength="113" x="398.25" y="227.0669">Message Accept&#233;</text><text fill="#000000" font-family="sans-serif" font-size="13" lengthAdjust="spacing" textLength="75" x="417.25" y="242.1997">/ Accepter()</text></g><!--link enAttente to EnDestruction--><g id="link_enAttente_EnDestruction"><path d="M284.72,165.13 C223.74,174.82 116.34,201.99 68.25,276 C6,371.77 9.31,435.16 68.25,533 C93.6,575.09 137.3591,598.5616 179.5791,613.3916 " fill="none" id="enAttente-to-EnDestruction" style="stroke:#181818;stroke-width:1.0;"/><polygon fill="#181818" points="185.24,615.38,178.0742,608.6234,180.5226,613.723,175.423,616.1713,185.24,615.38" style="stroke:#181818;stroke-width:1.0;"/><text fill="#000000" font-family="sans-serif" font-size="13" lengthAdjust="spacing" textLength="137" x="69.25" y="409.0669">demande destruction</text></g><!--link enAttente to Refus?--><g id="link_enAttente_Refus&#233;"><path d="M284.63,181.91 C272.55,190.19 260.98,200.86 254.25,214 C226.71,267.75 239.6178,336.0279 250.0478,373.6679 " fill="none" id="enAttente-to-Refus&#233;" style="stroke:#181818;stroke-width:1.0;"/><polygon fill="#181818" points="251.65,379.45,253.1014,369.7087,250.3148,374.6316,245.3919,371.845,251.65,379.45" style="stroke:#181818;stroke-width:1.0;"/><text fill="#000000" font-family="sans-serif" font-size="13" lengthAdjust="spacing" textLength="101" x="255.25" y="227.0669">Message refus&#233;</text><text fill="#000000" font-family="sans-serif" font-size="13" lengthAdjust="spacing" textLength="66" x="272.75" y="242.1997">/ Refuser()</text></g><!--link Accept? to EnDestruction--><g id="link_Accept&#233;_EnDestruction"><path d="M455.39,533.21 C440.52,550.48 424.03,566.78 406.25,580 C384.76,595.98 363.727,605.7475 338.987,614.0675 " fill="none" id="Accept&#233;-to-EnDestruction" style="stroke:#181818;stroke-width:1.0;"/><polygon fill="#181818" points="333.3,615.98,343.1056,616.9026,338.0392,614.3862,340.5555,609.3199,333.3,615.98" style="stroke:#181818;stroke-width:1.0;"/><text fill="#000000" font-family="sans-serif" font-size="13" lengthAdjust="spacing" textLength="137" x="425.25" y="576.0669">demande destruction</text></g><!--link Refus? to EnDestruction--><g id="link_Refus&#233;_EnDestruction"><path d="M259.25,429.52 C259.25,473.41 259.25,560.06 259.25,603.96 " fill="none" id="Refus&#233;-to-EnDestruction" style="stroke:#181818;stroke-width:1.0;"/><polygon fill="#181818" points="259.25,609.96,263.25,600.96,259.25,604.96,255.25,600.96,259.25,609.96" style="stroke:#181818;stroke-width:1.0;"/><text fill="#000000" font-family="sans-serif" font-size="13" lengthAdjust="spacing" textLength="137" x="260.25" y="576.0669">demande destruction</text></g><!--reverse link *end* to EnDestruction--><g id="link_*end*_EnDestruction"><path d="M156.5,635 C167.97,635 173.44,635 184.91,635 " fill="none" id="*end*-backto-EnDestruction" style="stroke:#181818;stroke-width:1.0;"/><polygon fill="#181818" points="150.5,635,159.5,639,155.5,635,159.5,631,150.5,635" style="stroke:#181818;stroke-width:1.0;"/></g><!--SRC=[ZL5BRi8m4Dtx5ADk0fKGUmH82DWLgK9gDvI5SIQ9fSIXjbEfgdg0tgBRdCCNg-qOaz0DsSJpvhtvl4asdEQILXL2Yb1HLd21O7x1j9fg1QFdaWhzidiQ9uGawrfaF6yarRmMm0egDOALdml-tg1Zc1ylGmrQKg6u8wg4A8iYRCLQchOJpm25bf_spon3ouPfREHe7AaRxD0XESN_t8UjM6bj6VW0rFQ-H9Vq7hD6cTOdmvk4t8enF6lJmXS1-nqUZp2PBE63AtugqMFXxN5c_R7a6UnGAPhZsiUZyTGbq4ta587LAtHLl7Q0bUnHfF8Qa-ym4eFvd1KrPxXS4k8daZmljAtMyu_qlOm4HfXl6zUQmO5dtIrtM9qamc81LPsQrjxGUdWCWkYPKs2fy4WYT5CmB1AXDp4DRs_0G7PxnHGhAbACLtIB30JXFBqsiaDS5v_qJU8uzpQvrBsNF-1CIioSk_OMv0y0]--></g></svg>