<?xml version="1.0" encoding="us-ascii" standalone="no"?><svg xmlns="http://www.w3.org/2000/svg" xmlns:xlink="http://www.w3.org/1999/xlink" contentStyleType="text/css" height="1216px" preserveAspectRatio="none" style="width:2243px;height:1216px;background:#FFFFFF;" version="1.1" viewBox="0 0 2243 1216" width="2243px" zoomAndPan="magnify"><defs/><g><rect fill="#FFFFFF" height="1087.7188" style="stroke:#181818;stroke-width:1.0;" width="10" x="925.5" y="112.4297"/><rect fill="#FFFFFF" height="1026.4531" style="stroke:#181818;stroke-width:1.0;" width="10" x="930.5" y="173.6953"/><rect fill="#FFFFFF" height="954.1875" style="stroke:#181818;stroke-width:1.0;" width="10" x="935.5" y="245.9609"/><rect fill="#FFFFFF" height="892.9219" style="stroke:#181818;stroke-width:1.0;" width="10" x="940.5" y="307.2266"/><rect fill="#FFFFFF" height="820.6563" style="stroke:#181818;stroke-width:1.0;" width="10" x="945.5" y="379.4922"/><rect fill="#FFFFFF" height="759.3906" style="stroke:#181818;stroke-width:1.0;" width="10" x="950.5" y="440.7578"/><rect fill="#FFFFFF" height="643.9922" style="stroke:#181818;stroke-width:1.0;" width="10" x="955.5" y="556.1563"/><rect fill="#FFFFFF" height="582.7266" style="stroke:#181818;stroke-width:1.0;" width="10" x="960.5" y="617.4219"/><rect fill="#FFFFFF" height="516.4609" style="stroke:#181818;stroke-width:1.0;" width="10" x="965.5" y="683.6875"/><rect fill="#FFFFFF" height="432.0313" style="stroke:#181818;stroke-width:1.0;" width="10" x="970.5" y="768.1172"/><rect fill="#FFFFFF" height="388.8984" style="stroke:#181818;stroke-width:1.0;" width="10" x="975.5" y="811.25"/><rect fill="#FFFFFF" height="345.7656" style="stroke:#181818;stroke-width:1.0;" width="10" x="980.5" y="854.3828"/><rect fill="#FFFFFF" height="247.3359" style="stroke:#181818;stroke-width:1.0;" width="10" x="985.5" y="952.8125"/><rect fill="#FFFFFF" height="180.0703" style="stroke:#181818;stroke-width:1.0;" width="10" x="990.5" y="1020.0781"/><rect fill="#FFFFFF" height="136.9375" style="stroke:#181818;stroke-width:1.0;" width="10" x="995.5" y="1063.2109"/><rect fill="#FFFFFF" height="79" style="stroke:#181818;stroke-width:1.0;" width="10" x="1000.5" y="1121.1484"/><rect fill="#FFFFFF" height="968.1875" style="stroke:#181818;stroke-width:1.0;" width="10" x="1274.5" y="231.9609"/><rect fill="#FFFFFF" height="657.9922" style="stroke:#181818;stroke-width:1.0;" width="10" x="1279.5" y="542.1563"/><rect fill="#FFFFFF" height="359.7656" style="stroke:#181818;stroke-width:1.0;" width="10" x="1383.5" y="840.3828"/><rect fill="#FFFFFF" height="402.8984" style="stroke:#181818;stroke-width:1.0;" width="10" x="1815.5" y="797.25"/><rect fill="#FFFFFF" height="16.1641" style="stroke:#181818;stroke-width:1.0;" width="10" x="2007.5" y="893.5156"/><rect fill="none" height="1064.7188" style="stroke:#000000;stroke-width:1.5;" width="1449.5" x="788" y="127.4297"/><rect fill="none" height="991.4531" style="stroke:#000000;stroke-width:1.5;" width="1429.5" x="798" y="193.6953"/><rect fill="none" height="917.1875" style="stroke:#000000;stroke-width:1.5;" width="1409.5" x="808" y="260.9609"/><rect fill="none" height="843.9219" style="stroke:#000000;stroke-width:1.5;" width="1389.5" x="818" y="327.2266"/><rect fill="none" height="769.6563" style="stroke:#000000;stroke-width:1.5;" width="1369.5" x="828" y="394.4922"/><rect fill="none" height="696.3906" style="stroke:#000000;stroke-width:1.5;" width="1349.5" x="838" y="460.7578"/><rect fill="none" height="578.9922" style="stroke:#000000;stroke-width:1.5;" width="1329.5" x="848" y="571.1563"/><rect fill="none" height="505.7266" style="stroke:#000000;stroke-width:1.5;" width="1309.5" x="858" y="637.4219"/><rect fill="none" height="432.4609" style="stroke:#000000;stroke-width:1.5;" width="1289.5" x="868" y="703.6875"/><rect fill="none" height="161.3359" style="stroke:#000000;stroke-width:1.5;" width="559" x="878" y="967.8125"/><line style="stroke:#181818;stroke-width:0.5;stroke-dasharray:5.0,5.0;" x1="44" x2="44" y1="81.2969" y2="1209.1484"/><line style="stroke:#181818;stroke-width:0.5;stroke-dasharray:5.0,5.0;" x1="930" x2="930" y1="81.2969" y2="1209.1484"/><line style="stroke:#181818;stroke-width:0.5;stroke-dasharray:5.0,5.0;" x1="1279.5" x2="1279.5" y1="81.2969" y2="1209.1484"/><line style="stroke:#181818;stroke-width:0.5;stroke-dasharray:5.0,5.0;" x1="1388" x2="1388" y1="81.2969" y2="1209.1484"/><line style="stroke:#181818;stroke-width:0.5;stroke-dasharray:5.0,5.0;" x1="1584.5" x2="1584.5" y1="81.2969" y2="1209.1484"/><line style="stroke:#181818;stroke-width:0.5;stroke-dasharray:5.0,5.0;" x1="1712.5" x2="1712.5" y1="751.4688" y2="1209.1484"/><line style="stroke:#181818;stroke-width:0.5;stroke-dasharray:5.0,5.0;" x1="1820.5" x2="1820.5" y1="81.2969" y2="1209.1484"/><line style="stroke:#181818;stroke-width:0.5;stroke-dasharray:5.0,5.0;" x1="2012.5" x2="2012.5" y1="893.0313" y2="1209.1484"/><text fill="#000000" font-family="sans-serif" font-size="14" lengthAdjust="spacing" text-decoration="underline" textLength="73" x="5" y="77.9951">:Utilisateur</text><ellipse cx="44.5" cy="13.5" fill="#FFFFFF" rx="8" ry="8" style="stroke:#181818;stroke-width:0.5;"/><path d="M44.5,21.5 L44.5,48.5 M31.5,29.5 L57.5,29.5 M44.5,48.5 L31.5,63.5 M44.5,48.5 L57.5,63.5 " fill="none" style="stroke:#181818;stroke-width:0.5;"/><rect fill="#FFFFFF" height="30.2969" rx="2.5" ry="2.5" style="stroke:#181818;stroke-width:0.5;" width="85" x="888" y="50"/><text fill="#000000" font-family="sans-serif" font-size="14" lengthAdjust="spacing" text-decoration="underline" textLength="71" x="895" y="69.9951">m:minisoc</text><rect fill="#FFFFFF" height="30.2969" rx="2.5" ry="2.5" style="stroke:#181818;stroke-width:0.5;" width="96" x="1231.5" y="50"/><text fill="#000000" font-family="sans-serif" font-size="14" lengthAdjust="spacing" text-decoration="underline" textLength="82" x="1238.5" y="69.9951">u:Utilisateur</text><rect fill="#FFFFFF" height="30.2969" rx="2.5" ry="2.5" style="stroke:#181818;stroke-width:0.5;" width="77" x="1350" y="50"/><text fill="#000000" font-family="sans-serif" font-size="14" lengthAdjust="spacing" text-decoration="underline" textLength="63" x="1357" y="69.9951">r:R&#233;seau</text><rect fill="#FFFFFF" height="30.2969" rx="2.5" ry="2.5" style="stroke:#181818;stroke-width:0.5;" width="134" x="1517.5" y="50"/><text fill="#000000" font-family="sans-serif" font-size="14" lengthAdjust="spacing" text-decoration="underline" textLength="120" x="1524.5" y="69.9951">member:Member</text><rect fill="#FFFFFF" height="30.2969" rx="2.5" ry="2.5" style="stroke:#181818;stroke-width:0.5;" width="94" x="1773.5" y="50"/><text fill="#000000" font-family="sans-serif" font-size="14" lengthAdjust="spacing" text-decoration="underline" textLength="80" x="1780.5" y="69.9951">v:Utilisateur</text><rect fill="#FFFFFF" height="1087.7188" style="stroke:#181818;stroke-width:1.0;" width="10" x="925.5" y="112.4297"/><rect fill="#FFFFFF" height="1026.4531" style="stroke:#181818;stroke-width:1.0;" width="10" x="930.5" y="173.6953"/><rect fill="#FFFFFF" height="954.1875" style="stroke:#181818;stroke-width:1.0;" width="10" x="935.5" y="245.9609"/><rect fill="#FFFFFF" height="892.9219" style="stroke:#181818;stroke-width:1.0;" width="10" x="940.5" y="307.2266"/><rect fill="#FFFFFF" height="820.6563" style="stroke:#181818;stroke-width:1.0;" width="10" x="945.5" y="379.4922"/><rect fill="#FFFFFF" height="759.3906" style="stroke:#181818;stroke-width:1.0;" width="10" x="950.5" y="440.7578"/><rect fill="#FFFFFF" height="643.9922" style="stroke:#181818;stroke-width:1.0;" width="10" x="955.5" y="556.1563"/><rect fill="#FFFFFF" height="582.7266" style="stroke:#181818;stroke-width:1.0;" width="10" x="960.5" y="617.4219"/><rect fill="#FFFFFF" height="516.4609" style="stroke:#181818;stroke-width:1.0;" width="10" x="965.5" y="683.6875"/><rect fill="#FFFFFF" height="432.0313" style="stroke:#181818;stroke-width:1.0;" width="10" x="970.5" y="768.1172"/><rect fill="#FFFFFF" height="388.8984" style="stroke:#181818;stroke-width:1.0;" width="10" x="975.5" y="811.25"/><rect fill="#FFFFFF" height="345.7656" style="stroke:#181818;stroke-width:1.0;" width="10" x="980.5" y="854.3828"/><rect fill="#FFFFFF" height="247.3359" style="stroke:#181818;stroke-width:1.0;" width="10" x="985.5" y="952.8125"/><rect fill="#FFFFFF" height="180.0703" style="stroke:#181818;stroke-width:1.0;" width="10" x="990.5" y="1020.0781"/><rect fill="#FFFFFF" height="136.9375" style="stroke:#181818;stroke-width:1.0;" width="10" x="995.5" y="1063.2109"/><rect fill="#FFFFFF" height="79" style="stroke:#181818;stroke-width:1.0;" width="10" x="1000.5" y="1121.1484"/><rect fill="#FFFFFF" height="968.1875" style="stroke:#181818;stroke-width:1.0;" width="10" x="1274.5" y="231.9609"/><rect fill="#FFFFFF" height="657.9922" style="stroke:#181818;stroke-width:1.0;" width="10" x="1279.5" y="542.1563"/><rect fill="#FFFFFF" height="359.7656" style="stroke:#181818;stroke-width:1.0;" width="10" x="1383.5" y="840.3828"/><rect fill="#FFFFFF" height="402.8984" style="stroke:#181818;stroke-width:1.0;" width="10" x="1815.5" y="797.25"/><rect fill="#FFFFFF" height="16.1641" style="stroke:#181818;stroke-width:1.0;" width="10" x="2007.5" y="893.5156"/><polygon fill="#181818" points="913.5,108.4297,923.5,112.4297,913.5,116.4297,917.5,112.4297" style="stroke:#181818;stroke-width:1.0;"/><line style="stroke:#181818;stroke-width:1.0;" x1="44.5" x2="919.5" y1="112.4297" y2="112.4297"/><text fill="#000000" font-family="sans-serif" font-size="13" lengthAdjust="spacing" textLength="862" x="51.5" y="107.3638">AjouterMembreAuReseau(pseudonyme, monPseudoMembre, pseudonymeAjout, PseudoMembreAJout, etatMembreAjout, nomReseau)</text><path d="M788,127.4297 L858,127.4297 L858,134.5625 L848,144.5625 L788,144.5625 L788,127.4297 " fill="#EEEEEE" style="stroke:#000000;stroke-width:1.5;"/><rect fill="none" height="1064.7188" style="stroke:#000000;stroke-width:1.5;" width="1449.5" x="788" y="127.4297"/><text fill="#000000" font-family="sans-serif" font-size="13" font-weight="bold" lengthAdjust="spacing" textLength="25" x="803" y="140.4966">opt</text><text fill="#000000" font-family="sans-serif" font-size="11" font-weight="bold" lengthAdjust="spacing" textLength="1248" x="873" y="139.6401">[monPseudoMembre (non null &#8743; non vide) &#8743; pseudonyme (non null &#8743; non vide)&#8743; PseudoMmebre (non null &#8743; non vide)&#8743; etatMembreAjout (non null &#8743; non vide) ^ nomReseau (non null ^ non vide)]</text><line style="stroke:#181818;stroke-width:1.0;" x1="935.5" x2="982.5" y1="160.6953" y2="160.6953"/><line style="stroke:#181818;stroke-width:1.0;" x1="982.5" x2="982.5" y1="160.6953" y2="173.6953"/><line style="stroke:#181818;stroke-width:1.0;" x1="941.5" x2="982.5" y1="173.6953" y2="173.6953"/><polygon fill="#181818" points="951.5,169.6953,941.5,173.6953,951.5,177.6953,947.5,173.6953" style="stroke:#181818;stroke-width:1.0;"/><text fill="#000000" font-family="sans-serif" font-size="13" lengthAdjust="spacing" textLength="249" x="947.5" y="155.6294">u= chercher(pseudonyme) : Utilisateur</text><path d="M798,193.6953 L868,193.6953 L868,200.8281 L858,210.8281 L798,210.8281 L798,193.6953 " fill="#EEEEEE" style="stroke:#000000;stroke-width:1.5;"/><rect fill="none" height="991.4531" style="stroke:#000000;stroke-width:1.5;" width="1429.5" x="798" y="193.6953"/><text fill="#000000" font-family="sans-serif" font-size="13" font-weight="bold" lengthAdjust="spacing" textLength="25" x="813" y="206.7622">opt</text><text fill="#000000" font-family="sans-serif" font-size="11" font-weight="bold" lengthAdjust="spacing" textLength="60" x="883" y="205.9058">[u!= null]</text><polygon fill="#181818" points="1262.5,227.9609,1272.5,231.9609,1262.5,235.9609,1266.5,231.9609" style="stroke:#181818;stroke-width:1.0;"/><line style="stroke:#181818;stroke-width:1.0;" x1="940.5" x2="1268.5" y1="231.9609" y2="231.9609"/><text fill="#000000" font-family="sans-serif" font-size="13" lengthAdjust="spacing" textLength="228" x="947.5" y="226.895">ChercherEtatCompte(pseudonyme)</text><polygon fill="#181818" points="956.5,241.9609,946.5,245.9609,956.5,249.9609,952.5,245.9609" style="stroke:#181818;stroke-width:1.0;"/><line style="stroke:#181818;stroke-width:1.0;stroke-dasharray:2.0,2.0;" x1="950.5" x2="1273.5" y1="245.9609" y2="245.9609"/><path d="M808,260.9609 L878,260.9609 L878,268.0938 L868,278.0938 L808,278.0938 L808,260.9609 " fill="#EEEEEE" style="stroke:#000000;stroke-width:1.5;"/><rect fill="none" height="917.1875" style="stroke:#000000;stroke-width:1.5;" width="1409.5" x="808" y="260.9609"/><text fill="#000000" font-family="sans-serif" font-size="13" font-weight="bold" lengthAdjust="spacing" textLength="25" x="823" y="274.0278">opt</text><text fill="#000000" font-family="sans-serif" font-size="11" font-weight="bold" lengthAdjust="spacing" textLength="148" x="893" y="273.1714">[EtatCompte == ACTIF]</text><line style="stroke:#181818;stroke-width:1.0;" x1="945.5" x2="992.5" y1="294.2266" y2="294.2266"/><line style="stroke:#181818;stroke-width:1.0;" x1="992.5" x2="992.5" y1="294.2266" y2="307.2266"/><line style="stroke:#181818;stroke-width:1.0;" x1="951.5" x2="992.5" y1="307.2266" y2="307.2266"/><polygon fill="#181818" points="961.5,303.2266,951.5,307.2266,961.5,311.2266,957.5,307.2266" style="stroke:#181818;stroke-width:1.0;"/><text fill="#000000" font-family="sans-serif" font-size="13" lengthAdjust="spacing" textLength="211" x="957.5" y="289.1606">r= ChercherReseau(nomReseau)</text><path d="M818,327.2266 L888,327.2266 L888,334.3594 L878,344.3594 L818,344.3594 L818,327.2266 " fill="#EEEEEE" style="stroke:#000000;stroke-width:1.5;"/><rect fill="none" height="843.9219" style="stroke:#000000;stroke-width:1.5;" width="1389.5" x="818" y="327.2266"/><text fill="#000000" font-family="sans-serif" font-size="13" font-weight="bold" lengthAdjust="spacing" textLength="25" x="833" y="340.2935">opt</text><text fill="#000000" font-family="sans-serif" font-size="11" font-weight="bold" lengthAdjust="spacing" textLength="57" x="903" y="339.437">[r!= null]</text><polygon fill="#181818" points="1376.5,361.4922,1386.5,365.4922,1376.5,369.4922,1380.5,365.4922" style="stroke:#181818;stroke-width:1.0;"/><line style="stroke:#181818;stroke-width:1.0;" x1="950.5" x2="1382.5" y1="365.4922" y2="365.4922"/><text fill="#000000" font-family="sans-serif" font-size="13" lengthAdjust="spacing" textLength="217" x="957.5" y="360.4263">ChercherEtatReseau(nomReseau)</text><polygon fill="#181818" points="966.5,375.4922,956.5,379.4922,966.5,383.4922,962.5,379.4922" style="stroke:#181818;stroke-width:1.0;"/><line style="stroke:#181818;stroke-width:1.0;stroke-dasharray:2.0,2.0;" x1="960.5" x2="1387.5" y1="379.4922" y2="379.4922"/><path d="M828,394.4922 L898,394.4922 L898,401.625 L888,411.625 L828,411.625 L828,394.4922 " fill="#EEEEEE" style="stroke:#000000;stroke-width:1.5;"/><rect fill="none" height="769.6563" style="stroke:#000000;stroke-width:1.5;" width="1369.5" x="828" y="394.4922"/><text fill="#000000" font-family="sans-serif" font-size="13" font-weight="bold" lengthAdjust="spacing" textLength="25" x="843" y="407.5591">opt</text><text fill="#000000" font-family="sans-serif" font-size="11" font-weight="bold" lengthAdjust="spacing" textLength="160" x="913" y="406.7026">[EtatReseau == OUVERT]</text><line style="stroke:#181818;stroke-width:1.0;" x1="955.5" x2="1002.5" y1="427.7578" y2="427.7578"/><line style="stroke:#181818;stroke-width:1.0;" x1="1002.5" x2="1002.5" y1="427.7578" y2="440.7578"/><line style="stroke:#181818;stroke-width:1.0;" x1="961.5" x2="1002.5" y1="440.7578" y2="440.7578"/><polygon fill="#181818" points="971.5,436.7578,961.5,440.7578,971.5,444.7578,967.5,440.7578" style="stroke:#181818;stroke-width:1.0;"/><text fill="#000000" font-family="sans-serif" font-size="13" lengthAdjust="spacing" textLength="219" x="967.5" y="422.6919">m=chercher(monPseudoMembre)</text><path d="M838,460.7578 L908,460.7578 L908,467.8906 L898,477.8906 L838,477.8906 L838,460.7578 " fill="#EEEEEE" style="stroke:#000000;stroke-width:1.5;"/><rect fill="none" height="696.3906" style="stroke:#000000;stroke-width:1.5;" width="1349.5" x="838" y="460.7578"/><text fill="#000000" font-family="sans-serif" font-size="13" font-weight="bold" lengthAdjust="spacing" textLength="25" x="853" y="473.8247">opt</text><text fill="#000000" font-family="sans-serif" font-size="11" font-weight="bold" lengthAdjust="spacing" textLength="107" x="923" y="472.9683">[member != null]</text><polygon fill="#181818" points="1262.5,495.0234,1272.5,499.0234,1262.5,503.0234,1266.5,499.0234" style="stroke:#181818;stroke-width:1.0;"/><line style="stroke:#181818;stroke-width:1.0;" x1="960.5" x2="1268.5" y1="499.0234" y2="499.0234"/><text fill="#000000" font-family="sans-serif" font-size="13" lengthAdjust="spacing" textLength="276" x="967.5" y="493.9575">ChercherEtatMembre(monpseudoMembre)</text><polygon fill="#181818" points="1572.5,524.1563,1582.5,528.1563,1572.5,532.1563,1576.5,528.1563" style="stroke:#181818;stroke-width:1.0;"/><line style="stroke:#181818;stroke-width:1.0;" x1="1284.5" x2="1578.5" y1="528.1563" y2="528.1563"/><text fill="#000000" font-family="sans-serif" font-size="13" lengthAdjust="spacing" textLength="276" x="1291.5" y="523.0903">ChercherEtatMembre(monpseudoMembre)</text><polygon fill="#181818" points="1300.5,538.1563,1290.5,542.1563,1300.5,546.1563,1296.5,542.1563" style="stroke:#181818;stroke-width:1.0;"/><line style="stroke:#181818;stroke-width:1.0;stroke-dasharray:2.0,2.0;" x1="1294.5" x2="1583.5" y1="542.1563" y2="542.1563"/><polygon fill="#181818" points="976.5,552.1563,966.5,556.1563,976.5,560.1563,972.5,556.1563" style="stroke:#181818;stroke-width:1.0;"/><line style="stroke:#181818;stroke-width:1.0;stroke-dasharray:2.0,2.0;" x1="970.5" x2="1278.5" y1="556.1563" y2="556.1563"/><path d="M848,571.1563 L918,571.1563 L918,578.2891 L908,588.2891 L848,588.2891 L848,571.1563 " fill="#EEEEEE" style="stroke:#000000;stroke-width:1.5;"/><rect fill="none" height="578.9922" style="stroke:#000000;stroke-width:1.5;" width="1329.5" x="848" y="571.1563"/><text fill="#000000" font-family="sans-serif" font-size="13" font-weight="bold" lengthAdjust="spacing" textLength="25" x="863" y="584.2231">opt</text><text fill="#000000" font-family="sans-serif" font-size="11" font-weight="bold" lengthAdjust="spacing" textLength="187" x="933" y="583.3667">[etatMembre == Mod&#233;rateur]</text><line style="stroke:#181818;stroke-width:1.0;" x1="965.5" x2="1012.5" y1="604.4219" y2="604.4219"/><line style="stroke:#181818;stroke-width:1.0;" x1="1012.5" x2="1012.5" y1="604.4219" y2="617.4219"/><line style="stroke:#181818;stroke-width:1.0;" x1="971.5" x2="1012.5" y1="617.4219" y2="617.4219"/><polygon fill="#181818" points="981.5,613.4219,971.5,617.4219,981.5,621.4219,977.5,617.4219" style="stroke:#181818;stroke-width:1.0;"/><text fill="#000000" font-family="sans-serif" font-size="13" lengthAdjust="spacing" textLength="281" x="977.5" y="599.356">v= chercher(pseudonymeAjout) : Utilisateur</text><path d="M858,637.4219 L928,637.4219 L928,644.5547 L918,654.5547 L858,654.5547 L858,637.4219 " fill="#EEEEEE" style="stroke:#000000;stroke-width:1.5;"/><rect fill="none" height="505.7266" style="stroke:#000000;stroke-width:1.5;" width="1309.5" x="858" y="637.4219"/><text fill="#000000" font-family="sans-serif" font-size="13" font-weight="bold" lengthAdjust="spacing" textLength="25" x="873" y="650.4888">opt</text><text fill="#000000" font-family="sans-serif" font-size="11" font-weight="bold" lengthAdjust="spacing" textLength="63" x="943" y="649.6323">[v != null]</text><line style="stroke:#181818;stroke-width:1.0;" x1="970.5" x2="1017.5" y1="670.6875" y2="670.6875"/><line style="stroke:#181818;stroke-width:1.0;" x1="1017.5" x2="1017.5" y1="670.6875" y2="683.6875"/><line style="stroke:#181818;stroke-width:1.0;" x1="976.5" x2="1017.5" y1="683.6875" y2="683.6875"/><polygon fill="#181818" points="986.5,679.6875,976.5,683.6875,986.5,687.6875,982.5,683.6875" style="stroke:#181818;stroke-width:1.0;"/><text fill="#000000" font-family="sans-serif" font-size="13" lengthAdjust="spacing" textLength="290" x="982.5" y="665.6216">m1= ChercherMembre(pseudoMembreAjout)</text><path d="M868,703.6875 L938,703.6875 L938,710.8203 L928,720.8203 L868,720.8203 L868,703.6875 " fill="#EEEEEE" style="stroke:#000000;stroke-width:1.5;"/><rect fill="none" height="432.4609" style="stroke:#000000;stroke-width:1.5;" width="1289.5" x="868" y="703.6875"/><text fill="#000000" font-family="sans-serif" font-size="13" font-weight="bold" lengthAdjust="spacing" textLength="25" x="883" y="716.7544">opt</text><text fill="#000000" font-family="sans-serif" font-size="11" font-weight="bold" lengthAdjust="spacing" textLength="79" x="953" y="715.8979">[m1 == null]</text><polygon fill="#181818" points="1649.5,737.9531,1659.5,741.9531,1649.5,745.9531,1653.5,741.9531" style="stroke:#181818;stroke-width:1.0;"/><line style="stroke:#181818;stroke-width:1.0;" x1="975.5" x2="1655.5" y1="741.9531" y2="741.9531"/><text fill="#000000" font-family="sans-serif" font-size="13" lengthAdjust="spacing" textLength="314" x="982.5" y="736.8872">"create(pseudoMembreAjout, etatMembreAjout)"</text><rect fill="#FFFFFF" height="30.2969" rx="2.5" ry="2.5" style="stroke:#181818;stroke-width:0.5;" width="102" x="1661.5" y="720.8203"/><text fill="#000000" font-family="sans-serif" font-size="14" lengthAdjust="spacing" text-decoration="underline" textLength="88" x="1668.5" y="740.8154">m1: Member</text><polygon fill="#181818" points="991.5,764.1172,981.5,768.1172,991.5,772.1172,987.5,768.1172" style="stroke:#181818;stroke-width:1.0;"/><line style="stroke:#181818;stroke-width:1.0;stroke-dasharray:2.0,2.0;" x1="985.5" x2="1711.5" y1="768.1172" y2="768.1172"/><polygon fill="#181818" points="1803.5,793.25,1813.5,797.25,1803.5,801.25,1807.5,797.25" style="stroke:#181818;stroke-width:1.0;"/><line style="stroke:#181818;stroke-width:1.0;" x1="980.5" x2="1809.5" y1="797.25" y2="797.25"/><text fill="#000000" font-family="sans-serif" font-size="13" lengthAdjust="spacing" textLength="271" x="987.5" y="792.1841">AjouterMembre(pseudoMembreAjout, m1)</text><polygon fill="#181818" points="996.5,807.25,986.5,811.25,996.5,815.25,992.5,811.25" style="stroke:#181818;stroke-width:1.0;"/><line style="stroke:#181818;stroke-width:1.0;stroke-dasharray:2.0,2.0;" x1="990.5" x2="1814.5" y1="811.25" y2="811.25"/><polygon fill="#181818" points="1371.5,836.3828,1381.5,840.3828,1371.5,844.3828,1375.5,840.3828" style="stroke:#181818;stroke-width:1.0;"/><line style="stroke:#181818;stroke-width:1.0;" x1="985.5" x2="1377.5" y1="840.3828" y2="840.3828"/><text fill="#000000" font-family="sans-serif" font-size="13" lengthAdjust="spacing" textLength="271" x="992.5" y="835.3169">AjouterMembre(pseudoMembreAjout, m1)</text><polygon fill="#181818" points="1001.5,850.3828,991.5,854.3828,1001.5,858.3828,997.5,854.3828" style="stroke:#181818;stroke-width:1.0;"/><line style="stroke:#181818;stroke-width:1.0;stroke-dasharray:2.0,2.0;" x1="995.5" x2="1382.5" y1="854.3828" y2="854.3828"/><polygon fill="#181818" points="1865.5,879.5156,1875.5,883.5156,1865.5,887.5156,1869.5,883.5156" style="stroke:#181818;stroke-width:1.0;"/><line style="stroke:#181818;stroke-width:1.0;" x1="990.5" x2="1871.5" y1="883.5156" y2="883.5156"/><text fill="#000000" font-family="sans-serif" font-size="13" lengthAdjust="spacing" textLength="61" x="997.5" y="878.4497">"create()"</text><rect fill="#FFFFFF" height="30.2969" rx="2.5" ry="2.5" style="stroke:#181818;stroke-width:0.5;" width="270" x="1877.5" y="862.3828"/><text fill="#000000" font-family="sans-serif" font-size="14" lengthAdjust="spacing" text-decoration="underline" textLength="256" x="1884.5" y="882.3779">consommateur2:MonConsommateur</text><polygon fill="#181818" points="1001.5,905.6797,991.5,909.6797,1001.5,913.6797,997.5,909.6797" style="stroke:#181818;stroke-width:1.0;"/><line style="stroke:#181818;stroke-width:1.0;stroke-dasharray:2.0,2.0;" x1="995.5" x2="2011.5" y1="909.6797" y2="909.6797"/><polygon fill="#181818" points="1803.5,934.8125,1813.5,938.8125,1803.5,942.8125,1807.5,938.8125" style="stroke:#181818;stroke-width:1.0;"/><line style="stroke:#181818;stroke-width:1.0;" x1="990.5" x2="1809.5" y1="938.8125" y2="938.8125"/><text fill="#000000" font-family="sans-serif" font-size="13" lengthAdjust="spacing" textLength="261" x="997.5" y="933.7466">RendreConsommateur(consommateur2)</text><polygon fill="#181818" points="1006.5,948.8125,996.5,952.8125,1006.5,956.8125,1002.5,952.8125" style="stroke:#181818;stroke-width:1.0;"/><line style="stroke:#181818;stroke-width:1.0;stroke-dasharray:2.0,2.0;" x1="1000.5" x2="1814.5" y1="952.8125" y2="952.8125"/><path d="M878,967.8125 L942,967.8125 L942,974.9453 L932,984.9453 L878,984.9453 L878,967.8125 " fill="#EEEEEE" style="stroke:#000000;stroke-width:1.5;"/><rect fill="none" height="161.3359" style="stroke:#000000;stroke-width:1.5;" width="559" x="878" y="967.8125"/><text fill="#000000" font-family="sans-serif" font-size="13" font-weight="bold" lengthAdjust="spacing" textLength="19" x="893" y="980.8794">alt</text><text fill="#000000" font-family="sans-serif" font-size="11" font-weight="bold" lengthAdjust="spacing" textLength="233" x="957" y="980.0229">[etatMembreAjout == MODERATEUR]</text><polygon fill="#181818" points="1371.5,1002.0781,1381.5,1006.0781,1371.5,1010.0781,1375.5,1006.0781" style="stroke:#181818;stroke-width:1.0;"/><line style="stroke:#181818;stroke-width:1.0;" x1="995.5" x2="1377.5" y1="1006.0781" y2="1006.0781"/><text fill="#000000" font-family="sans-serif" font-size="13" lengthAdjust="spacing" textLength="364" x="1002.5" y="1001.0122">SuouscrireDansProducteurMsgEnAttente(consomateur2)</text><polygon fill="#181818" points="1011.5,1016.0781,1001.5,1020.0781,1011.5,1024.0781,1007.5,1020.0781" style="stroke:#181818;stroke-width:1.0;"/><line style="stroke:#181818;stroke-width:1.0;stroke-dasharray:2.0,2.0;" x1="1005.5" x2="1382.5" y1="1020.0781" y2="1020.0781"/><polygon fill="#181818" points="1371.5,1045.2109,1381.5,1049.2109,1371.5,1053.2109,1375.5,1049.2109" style="stroke:#181818;stroke-width:1.0;"/><line style="stroke:#181818;stroke-width:1.0;" x1="1000.5" x2="1377.5" y1="1049.2109" y2="1049.2109"/><text fill="#000000" font-family="sans-serif" font-size="13" lengthAdjust="spacing" textLength="341" x="1007.5" y="1044.145">SouscrireDansProducteurMsgPoste(consommateur2)</text><polygon fill="#181818" points="1016.5,1059.2109,1006.5,1063.2109,1016.5,1067.2109,1012.5,1063.2109" style="stroke:#181818;stroke-width:1.0;"/><line style="stroke:#181818;stroke-width:1.0;stroke-dasharray:2.0,2.0;" x1="1010.5" x2="1382.5" y1="1063.2109" y2="1063.2109"/><line style="stroke:#000000;stroke-width:1.0;stroke-dasharray:2.0,2.0;" x1="878" x2="1437" y1="1072.2109" y2="1072.2109"/><text fill="#000000" font-family="sans-serif" font-size="11" font-weight="bold" lengthAdjust="spacing" textLength="201" x="883" y="1082.4214">[etatMembreAjout == MEMBRE]</text><polygon fill="#181818" points="1371.5,1103.1484,1381.5,1107.1484,1371.5,1111.1484,1375.5,1107.1484" style="stroke:#181818;stroke-width:1.0;"/><line style="stroke:#181818;stroke-width:1.0;" x1="1005.5" x2="1377.5" y1="1107.1484" y2="1107.1484"/><text fill="#000000" font-family="sans-serif" font-size="13" lengthAdjust="spacing" textLength="341" x="1012.5" y="1102.0825">SouscrireDansProducteurMsgPoste(consommateur2)</text><polygon fill="#181818" points="1021.5,1117.1484,1011.5,1121.1484,1021.5,1125.1484,1017.5,1121.1484" style="stroke:#181818;stroke-width:1.0;"/><line style="stroke:#181818;stroke-width:1.0;stroke-dasharray:2.0,2.0;" x1="1015.5" x2="1382.5" y1="1121.1484" y2="1121.1484"/><!--SRC=[fLRRZjis47qclsAwBxOHRm7tqO03E5u7I54ZXhERl6N1o1El4f5qUH7IF-XdzAtmT_XF-YNXJH8jQujU1Aoq9C-ScJapGtXqLxA3OfmZx17q-VIhHL4WZBSL4-PXyyjaHEbe9SNdyc0LCwKKK3mnPH2SsV6fTFWHVIgTyMSfpIVvZUglfJWonmaQ8zlMuSkYF3h6LwpuUb3IYlrALbB1XwVIu839iZ1I3OFfwEvyAYgMejcZ1bOOj4e3ch0yTluqZFVdqvVp7u3VIct23glT1ohMfUkIPDuXt3m-pXzCMPMQUSR7nnjW6gn6HJDI3-DpNefIoo9XU1-WvhlpIIEp2N35O8SyzK7r0AY-YWNv9rJpJVWqyOG5TS_eNLjLLcC15VfJhTa1zJIi2dK-1J6rRu9SlQcJjFXnHBq2SFiIEBnu0NDOVf7MeF8E5Ixj3dsUuwD6kvVYDuvJu59imp9Yfj0T1kCfvCVBdyCM6cRIHiG8oIFtXCgZwPF2MBZw2rjLyDVlVu9VrAuH9s7L-NiEvXU9ZkFVqFb5Bx9dFN_iGium7pi4XV3m86RGqYxSGA7oVvc24tUILJwP5GhTCZOF37LFX7cjx0-Bu3niaU3F1d-hv6pjKbf9VZIOkwN4mcsCZHBFqy5WiO3bwlxDQqe2PqeYTeHQjCIf6xBQ4P95hkOGzzkvSCVUaseY9YHgvDXLB-11Rl-esnHBmzQXVTnl7zwlT_VGe7Fz-QALlzTVBNakV9er61gs5XuYY9lGoug4l6mlh-ZG1t3i1K30-b0ZrpytIWQtiUoH1tADyaYxxlPQRQIxCLLiEzBKejEh7kpNC1RzfcsilOyw4w9L8ciWFkiwA2MMPnNvlMqiBv_vK1i-Sb6XMRywiuY9xcREsKr4NtkukeCcDybsbgjtqT3rq2ZMcSjwuD8SSirdAS6wvojnXNdubrJgsR0BTzrBpaFGFyqtKgooZPJ51IRU9AbjtDUh7lBxBsGnZwOENkN0samp6gk4RzEsKvEI_l8GUuKv__Y2EKvjr-4zCGchpDLrxhl-xTrwjxnVF-o0TjCHGmg-_VIzizBgGfKAxvZGMoNtDlposEZ3MYoDGU6IYT5S1kDUwdByOgeTyxF4MwbRqcjMw5UO05OQ1pDSRrxjrWdqFpptiW5AWNHjwZxfUabl05SmIjAO-lyXbpVxNfpvH7hOzd47GA-sQAnRF8okMdgW7X02YKiItu650lqE]--></g></svg>