<?xml version="1.0" encoding="us-ascii" standalone="no"?><svg xmlns="http://www.w3.org/2000/svg" xmlns:xlink="http://www.w3.org/1999/xlink" contentStyleType="text/css" height="634px" preserveAspectRatio="none" style="width:1728px;height:634px;background:#FFFFFF;" version="1.1" viewBox="0 0 1728 634" width="1728px" zoomAndPan="magnify"><defs/><g><!--class MiniSocs--><g id="elem_MiniSocs"><rect codeLine="14" fill="#FFFFFF" height="50.5938" id="MiniSocs" rx="2.5" ry="2.5" style="stroke:#000000;stroke-width:0.5;" width="106" x="1078" y="35"/><text fill="#000000" font-family="sans-serif" font-size="14" lengthAdjust="spacing" textLength="61" x="1100.5" y="52.9951">MiniSocs</text><line style="stroke:#000000;stroke-width:0.5;" x1="1079" x2="1183" y1="61.2969" y2="61.2969"/><rect fill="none" height="6" style="stroke:#C82930;stroke-width:1.0;" width="6" x="1086" y="71.9453"/><text fill="#000000" font-family="sans-serif" font-size="14" lengthAdjust="spacing" textLength="80" x="1098" y="78.292">nom: String</text></g><!--class Utilisateur--><g id="elem_Utilisateur"><rect codeLine="17" fill="#FFFFFF" height="115.7813" id="Utilisateur" rx="2.5" ry="2.5" style="stroke:#000000;stroke-width:0.5;" width="199" x="700.5" y="191"/><text fill="#000000" font-family="sans-serif" font-size="14" lengthAdjust="spacing" textLength="68" x="766" y="208.9951">Utilisateur</text><line style="stroke:#000000;stroke-width:0.5;" x1="701.5" x2="898.5" y1="217.2969" y2="217.2969"/><rect fill="none" height="6" style="stroke:#C82930;stroke-width:1.0;" width="6" x="708.5" y="227.9453"/><text fill="#000000" font-family="sans-serif" font-size="14" lengthAdjust="spacing" textLength="140" x="720.5" y="234.292">pseudonyme: String</text><rect fill="none" height="6" style="stroke:#C82930;stroke-width:1.0;" width="6" x="708.5" y="244.2422"/><text fill="#000000" font-family="sans-serif" font-size="14" lengthAdjust="spacing" textLength="80" x="720.5" y="250.5889">nom: String</text><rect fill="none" height="6" style="stroke:#C82930;stroke-width:1.0;" width="6" x="708.5" y="260.5391"/><text fill="#000000" font-family="sans-serif" font-size="14" lengthAdjust="spacing" textLength="103" x="720.5" y="266.8857">pr&#233;nom: String</text><rect fill="none" height="6" style="stroke:#C82930;stroke-width:1.0;" width="6" x="708.5" y="276.8359"/><text fill="#000000" font-family="sans-serif" font-size="14" lengthAdjust="spacing" textLength="100" x="720.5" y="283.1826">courriel: String</text><rect fill="none" height="6" style="stroke:#C82930;stroke-width:1.0;" width="6" x="708.5" y="293.1328"/><text fill="#000000" font-family="sans-serif" font-size="14" lengthAdjust="spacing" textLength="173" x="720.5" y="299.4795">etatCompte: &#201;tatCompte</text></g><!--class Membre--><g id="elem_Membre"><rect codeLine="24" fill="#FFFFFF" height="66.8906" id="Membre" rx="2.5" ry="2.5" style="stroke:#000000;stroke-width:0.5;" width="207" x="870.5" y="384"/><text fill="#000000" font-family="sans-serif" font-size="14" lengthAdjust="spacing" textLength="57" x="945.5" y="401.9951">Membre</text><line style="stroke:#000000;stroke-width:0.5;" x1="871.5" x2="1076.5" y1="410.2969" y2="410.2969"/><rect fill="none" height="6" style="stroke:#C82930;stroke-width:1.0;" width="6" x="878.5" y="420.9453"/><text fill="#000000" font-family="sans-serif" font-size="14" lengthAdjust="spacing" textLength="167" x="890.5" y="427.292">pseudo_membre: String</text><rect fill="none" height="6" style="stroke:#C82930;stroke-width:1.0;" width="6" x="878.5" y="437.2422"/><text fill="#000000" font-family="sans-serif" font-size="14" lengthAdjust="spacing" textLength="181" x="890.5" y="443.5889">etatMembre : &#201;tatMembre</text></g><!--class R?seau--><g id="elem_R&#233;seau"><rect codeLine="28" fill="#FFFFFF" height="99.4844" id="R&#233;seau" rx="2.5" ry="2.5" style="stroke:#000000;stroke-width:0.5;" width="392" x="935" y="199.5"/><text fill="#000000" font-family="sans-serif" font-size="14" lengthAdjust="spacing" textLength="53" x="1104.5" y="217.4951">R&#233;seau</text><line style="stroke:#000000;stroke-width:0.5;" x1="936" x2="1326" y1="225.7969" y2="225.7969"/><rect fill="none" height="6" style="stroke:#C82930;stroke-width:1.0;" width="6" x="943" y="236.4453"/><text fill="#000000" font-family="sans-serif" font-size="14" lengthAdjust="spacing" textLength="135" x="955" y="242.792">nom_R&#233;seau:string</text><rect fill="none" height="6" style="stroke:#C82930;stroke-width:1.0;" width="6" x="943" y="252.7422"/><text fill="#000000" font-family="sans-serif" font-size="14" lengthAdjust="spacing" textLength="167" x="955" y="259.0889">etat_r&#233;seau:&#201;tatR&#233;seau</text><rect fill="none" height="6" style="stroke:#C82930;stroke-width:1.0;" width="6" x="943" y="269.0391"/><text fill="#000000" font-family="sans-serif" font-size="14" lengthAdjust="spacing" textLength="366" x="955" y="275.3857">producteurMessageEnAttente : SubmissionPublisher</text><rect fill="none" height="6" style="stroke:#C82930;stroke-width:1.0;" width="6" x="943" y="285.3359"/><text fill="#000000" font-family="sans-serif" font-size="14" lengthAdjust="spacing" textLength="337" x="955" y="291.6826">producteurMessagePoste : SubmissionPublisher</text></g><!--class Message--><g id="elem_Message"><rect codeLine="35" fill="#FFFFFF" height="99.4844" id="Message" rx="2.5" ry="2.5" style="stroke:#000000;stroke-width:0.5;" width="246" x="930" y="528"/><text fill="#000000" font-family="sans-serif" font-size="14" lengthAdjust="spacing" textLength="63" x="1021.5" y="545.9951">Message</text><line style="stroke:#000000;stroke-width:0.5;" x1="931" x2="1175" y1="554.2969" y2="554.2969"/><rect fill="none" height="6" style="stroke:#C82930;stroke-width:1.0;" width="6" x="938" y="564.9453"/><text fill="#000000" font-family="sans-serif" font-size="14" lengthAdjust="spacing" textLength="127" x="950" y="571.292">idMessage : string</text><rect fill="none" height="6" style="stroke:#C82930;stroke-width:1.0;" width="6" x="938" y="581.2422"/><text fill="#000000" font-family="sans-serif" font-size="14" lengthAdjust="spacing" textLength="220" x="950" y="587.5889">DatePubication : LocalDateTime</text><rect fill="none" height="6" style="stroke:#C82930;stroke-width:1.0;" width="6" x="938" y="597.5391"/><text fill="#000000" font-family="sans-serif" font-size="14" lengthAdjust="spacing" textLength="107" x="950" y="603.8857">contenu: String</text><rect fill="none" height="6" style="stroke:#C82930;stroke-width:1.0;" width="6" x="938" y="613.8359"/><text fill="#000000" font-family="sans-serif" font-size="14" lengthAdjust="spacing" textLength="193" x="950" y="620.1826">etat_message:&#201;tatMessage</text></g><!--class Publisher--><g id="elem_Publisher"><rect codeLine="43" fill="#FFFFFF" height="74.8906" id="Publisher" rx="2.5" ry="2.5" style="stroke:#000000;stroke-width:0.5;" width="264" x="192" y="23"/><text fill="#000000" font-family="sans-serif" font-size="14" font-style="italic" lengthAdjust="spacing" textLength="62" x="293" y="40.9951">Publisher</text><line style="stroke:#000000;stroke-width:0.5;" x1="193" x2="455" y1="49.2969" y2="49.2969"/><line style="stroke:#000000;stroke-width:0.5;" x1="193" x2="455" y1="57.2969" y2="57.2969"/><ellipse cx="203" cy="70.9453" fill="#84BE84" rx="3" ry="3" style="stroke:#038048;stroke-width:1.0;"/><text fill="#000000" font-family="sans-serif" font-size="14" lengthAdjust="spacing" textLength="238" x="212" y="74.292">subscribe(subscriber : Subscriber)</text><ellipse cx="203" cy="87.2422" fill="#84BE84" rx="3" ry="3" style="stroke:#038048;stroke-width:1.0;"/><text fill="#000000" font-family="sans-serif" font-size="14" lengthAdjust="spacing" textLength="88" x="212" y="90.5889">submit(p : P)</text></g><!--class Subscriber--><g id="elem_Subscriber"><rect codeLine="48" fill="#FFFFFF" height="107.4844" id="Subscriber" rx="2.5" ry="2.5" style="stroke:#000000;stroke-width:0.5;" width="307" x="736.5" y="7"/><text fill="#000000" font-family="sans-serif" font-size="14" font-style="italic" lengthAdjust="spacing" textLength="73" x="853.5" y="24.9951">Subscriber</text><line style="stroke:#000000;stroke-width:0.5;" x1="737.5" x2="1042.5" y1="33.2969" y2="33.2969"/><line style="stroke:#000000;stroke-width:0.5;" x1="737.5" x2="1042.5" y1="41.2969" y2="41.2969"/><ellipse cx="747.5" cy="54.9453" fill="#84BE84" rx="3" ry="3" style="stroke:#038048;stroke-width:1.0;"/><text fill="#000000" font-family="sans-serif" font-size="14" lengthAdjust="spacing" textLength="281" x="756.5" y="58.292">onSubscribe(subscription : Subscription)</text><ellipse cx="747.5" cy="71.2422" fill="#84BE84" rx="3" ry="3" style="stroke:#038048;stroke-width:1.0;"/><text fill="#000000" font-family="sans-serif" font-size="14" lengthAdjust="spacing" textLength="90" x="756.5" y="74.5889">onNext(p : P)</text><ellipse cx="747.5" cy="87.5391" fill="#84BE84" rx="3" ry="3" style="stroke:#038048;stroke-width:1.0;"/><text fill="#000000" font-family="sans-serif" font-size="14" lengthAdjust="spacing" textLength="151" x="756.5" y="90.8857">onError(t : Throwable)</text><ellipse cx="747.5" cy="103.8359" fill="#84BE84" rx="3" ry="3" style="stroke:#038048;stroke-width:1.0;"/><text fill="#000000" font-family="sans-serif" font-size="14" lengthAdjust="spacing" textLength="95" x="756.5" y="107.1826">onComplete()</text></g><!--class Subscription--><g id="elem_Subscription"><rect codeLine="55" fill="#FFFFFF" height="74.8906" id="Subscription" rx="2.5" ry="2.5" style="stroke:#000000;stroke-width:0.5;" width="142" x="441" y="211.5"/><text fill="#000000" font-family="sans-serif" font-size="14" font-style="italic" lengthAdjust="spacing" textLength="85" x="469.5" y="229.4951">Subscription</text><line style="stroke:#000000;stroke-width:0.5;" x1="442" x2="582" y1="237.7969" y2="237.7969"/><line style="stroke:#000000;stroke-width:0.5;" x1="442" x2="582" y1="245.7969" y2="245.7969"/><ellipse cx="452" cy="259.4453" fill="#84BE84" rx="3" ry="3" style="stroke:#038048;stroke-width:1.0;"/><text fill="#000000" font-family="sans-serif" font-size="14" lengthAdjust="spacing" textLength="116" x="461" y="262.792">request(n : long)</text><ellipse cx="452" cy="275.7422" fill="#84BE84" rx="3" ry="3" style="stroke:#038048;stroke-width:1.0;"/><text fill="#000000" font-family="sans-serif" font-size="14" lengthAdjust="spacing" textLength="55" x="461" y="279.0889">cancel()</text></g><!--class SubmissionPublisher--><g id="elem_SubmissionPublisher"><rect codeLine="60" fill="#FFFFFF" height="58.5938" id="SubmissionPublisher" rx="2.5" ry="2.5" style="stroke:#000000;stroke-width:0.5;" width="150" x="7" y="31"/><text fill="#000000" font-family="sans-serif" font-size="14" lengthAdjust="spacing" textLength="144" x="10" y="48.9951">SubmissionPublisher</text><line style="stroke:#000000;stroke-width:0.5;" x1="8" x2="156" y1="57.2969" y2="57.2969"/><line style="stroke:#000000;stroke-width:0.5;" x1="8" x2="156" y1="65.2969" y2="65.2969"/><ellipse cx="18" cy="78.9453" fill="#84BE84" rx="3" ry="3" style="stroke:#038048;stroke-width:1.0;"/><text fill="#000000" font-family="sans-serif" font-size="14" lengthAdjust="spacing" textLength="88" x="27" y="82.292">submit(p : P)</text></g><!--class BufferedSubscription--><g id="elem_BufferedSubscription"><rect codeLine="64" fill="#FFFFFF" height="58.5938" id="BufferedSubscription" rx="2.5" ry="2.5" style="stroke:#000000;stroke-width:0.5;" width="151" x="254.5" y="219.5"/><text fill="#000000" font-family="sans-serif" font-size="14" lengthAdjust="spacing" textLength="145" x="257.5" y="237.4951">BufferedSubscription</text><line style="stroke:#000000;stroke-width:0.5;" x1="255.5" x2="404.5" y1="245.7969" y2="245.7969"/><line style="stroke:#000000;stroke-width:0.5;" x1="255.5" x2="404.5" y1="253.7969" y2="253.7969"/><ellipse cx="265.5" cy="267.4453" fill="#84BE84" rx="3" ry="3" style="stroke:#038048;stroke-width:1.0;"/><text fill="#000000" font-family="sans-serif" font-size="14" lengthAdjust="spacing" textLength="92" x="274.5" y="270.792">doOffer(p : P)</text></g><!--class Notification--><g id="elem_Notification"><rect codeLine="74" fill="#FFFFFF" height="50.5938" id="Notification" rx="2.5" ry="2.5" style="stroke:#000000;stroke-width:0.5;" width="133" x="1341.5" y="35"/><text fill="#000000" font-family="sans-serif" font-size="14" lengthAdjust="spacing" textLength="76" x="1370" y="52.9951">Notification</text><line style="stroke:#000000;stroke-width:0.5;" x1="1342.5" x2="1473.5" y1="61.2969" y2="61.2969"/><rect fill="none" height="6" style="stroke:#C82930;stroke-width:1.0;" width="6" x="1349.5" y="71.9453"/><text fill="#000000" font-family="sans-serif" font-size="14" lengthAdjust="spacing" textLength="107" x="1361.5" y="78.292">contenu :String</text></g><!--class MonConsommateur--><g id="elem_MonConsommateur"><rect codeLine="78" fill="#FFFFFF" height="99.4844" id="MonConsommateur" rx="2.5" ry="2.5" style="stroke:#000000;stroke-width:0.5;" width="210" x="491" y="11"/><text fill="#000000" font-family="sans-serif" font-size="14" lengthAdjust="spacing" textLength="137" x="527.5" y="28.9951">MonConsommateur</text><line style="stroke:#000000;stroke-width:0.5;" x1="492" x2="700" y1="37.2969" y2="37.2969"/><rect fill="none" height="6" style="stroke:#C82930;stroke-width:1.0;" width="6" x="499" y="47.9453"/><text fill="#000000" font-family="sans-serif" font-size="14" lengthAdjust="spacing" textLength="64" x="511" y="54.292">id : string</text><rect fill="none" height="6" style="stroke:#C82930;stroke-width:1.0;" width="6" x="499" y="64.2422"/><text fill="#000000" font-family="sans-serif" font-size="14" lengthAdjust="spacing" textLength="184" x="511" y="70.5889">souscription : Subscription</text><rect fill="none" height="6" style="stroke:#C82930;stroke-width:1.0;" width="6" x="499" y="80.5391"/><text fill="#000000" font-family="sans-serif" font-size="14" lengthAdjust="spacing" textLength="163" x="511" y="86.8857">strategie : EtatStrategie</text><rect fill="none" height="6" style="stroke:#C82930;stroke-width:1.0;" width="6" x="499" y="96.8359"/><text fill="#000000" font-family="sans-serif" font-size="14" lengthAdjust="spacing" textLength="181" x="511" y="103.1826">lastMessageTime : Instant</text></g><!--class ?tatCompte--><g id="elem_&#201;tatCompte"><rect codeLine="88" fill="#FFFFFF" height="97.1563" id="&#201;tatCompte" rx="2.5" ry="2.5" style="stroke:#000000;stroke-width:0.5;" width="90" x="1510" y="12"/><text fill="#000000" font-family="sans-serif" font-size="12" font-style="italic" lengthAdjust="spacing" textLength="49" x="1530.5" y="28.1387">&#171;enum&#187;</text><text fill="#000000" font-family="sans-serif" font-size="14" lengthAdjust="spacing" textLength="82" x="1514" y="43.9639">&#201;tatCompte</text><line style="stroke:#000000;stroke-width:0.5;" x1="1511" x2="1599" y1="52.2656" y2="52.2656"/><text fill="#000000" font-family="sans-serif" font-size="14" lengthAdjust="spacing" textLength="39" x="1516" y="69.2607">ACTIF</text><text fill="#000000" font-family="sans-serif" font-size="14" lengthAdjust="spacing" textLength="78" x="1516" y="85.5576">D&#201;SACTIV&#201;</text><text fill="#000000" font-family="sans-serif" font-size="14" lengthAdjust="spacing" textLength="58" x="1516" y="101.8545">BLOQU&#201;</text></g><!--class ?tatR?seau--><g id="elem_&#201;tatR&#233;seau"><rect codeLine="93" fill="#FFFFFF" height="80.8594" id="&#201;tatR&#233;seau" rx="2.5" ry="2.5" style="stroke:#000000;stroke-width:0.5;" width="86" x="1635" y="20"/><text fill="#000000" font-family="sans-serif" font-size="12" font-style="italic" lengthAdjust="spacing" textLength="49" x="1653.5" y="36.1387">&#171;enum&#187;</text><text fill="#000000" font-family="sans-serif" font-size="14" lengthAdjust="spacing" textLength="80" x="1638" y="51.9639">&#201;tatR&#233;seau</text><line style="stroke:#000000;stroke-width:0.5;" x1="1636" x2="1720" y1="60.2656" y2="60.2656"/><text fill="#000000" font-family="sans-serif" font-size="14" lengthAdjust="spacing" textLength="44" x="1641" y="77.2607">Ferm&#233;</text><text fill="#000000" font-family="sans-serif" font-size="14" lengthAdjust="spacing" textLength="46" x="1641" y="93.5576">Ouvert</text></g><!--class ?tatMembre--><g id="elem_&#201;tatMembre"><rect codeLine="97" fill="#FFFFFF" height="80.8594" id="&#201;tatMembre" rx="2.5" ry="2.5" style="stroke:#000000;stroke-width:0.5;" width="92" x="1362" y="208.5"/><text fill="#000000" font-family="sans-serif" font-size="12" font-style="italic" lengthAdjust="spacing" textLength="49" x="1383.5" y="224.6387">&#171;enum&#187;</text><text fill="#000000" font-family="sans-serif" font-size="14" lengthAdjust="spacing" textLength="84" x="1366" y="240.4639">&#201;tatMembre</text><line style="stroke:#000000;stroke-width:0.5;" x1="1363" x2="1453" y1="248.7656" y2="248.7656"/><text fill="#000000" font-family="sans-serif" font-size="14" lengthAdjust="spacing" textLength="57" x="1368" y="265.7607">Membre</text><text fill="#000000" font-family="sans-serif" font-size="14" lengthAdjust="spacing" textLength="80" x="1368" y="282.0576">Mod&#233;rateur</text></g><!--class EtatStrategie--><g id="elem_EtatStrategie"><rect codeLine="101" fill="#FFFFFF" height="97.1563" id="EtatStrategie" rx="2.5" ry="2.5" style="stroke:#000000;stroke-width:0.5;" width="95" x="1489.5" y="200.5"/><text fill="#000000" font-family="sans-serif" font-size="12" font-style="italic" lengthAdjust="spacing" textLength="49" x="1512.5" y="216.6387">&#171;enum&#187;</text><text fill="#000000" font-family="sans-serif" font-size="14" lengthAdjust="spacing" textLength="89" x="1492.5" y="232.4639">EtatStrategie</text><line style="stroke:#000000;stroke-width:0.5;" x1="1490.5" x2="1583.5" y1="240.7656" y2="240.7656"/><text fill="#000000" font-family="sans-serif" font-size="14" lengthAdjust="spacing" textLength="63" x="1495.5" y="257.7607">imm&#233;diat</text><text fill="#000000" font-family="sans-serif" font-size="14" lengthAdjust="spacing" textLength="65" x="1495.5" y="274.0576">quotidien</text><text fill="#000000" font-family="sans-serif" font-size="14" lengthAdjust="spacing" textLength="76" x="1495.5" y="290.3545">PasDeNotif</text></g><!--class ?tatMessage--><g id="elem_&#201;tatMessage"><rect codeLine="108" fill="#FFFFFF" height="97.1563" id="&#201;tatMessage" rx="2.5" ry="2.5" style="stroke:#000000;stroke-width:0.5;" width="96" x="1620" y="200.5"/><text fill="#000000" font-family="sans-serif" font-size="12" font-style="italic" lengthAdjust="spacing" textLength="49" x="1643.5" y="216.6387">&#171;enum&#187;</text><text fill="#000000" font-family="sans-serif" font-size="14" lengthAdjust="spacing" textLength="90" x="1623" y="232.4639">&#201;tatMessage</text><line style="stroke:#000000;stroke-width:0.5;" x1="1621" x2="1715" y1="240.7656" y2="240.7656"/><text fill="#000000" font-family="sans-serif" font-size="14" lengthAdjust="spacing" textLength="49" x="1626" y="257.7607">Refus&#233;</text><text fill="#000000" font-family="sans-serif" font-size="14" lengthAdjust="spacing" textLength="57" x="1626" y="274.0576">Accept&#233;</text><text fill="#000000" font-family="sans-serif" font-size="14" lengthAdjust="spacing" textLength="72" x="1626" y="290.3545">En attente</text></g><!--link MiniSocs to Utilisateur--><g id="link_MiniSocs_Utilisateur"><path codeLine="118" d="M1090.9226,93.4988 C1078.9426,102.6988 1074.39,105.62 1061,114 C1031.74,132.3 965.7101,166.0938 904.9701,196.3638 " fill="none" id="MiniSocs-Utilisateur" style="stroke:#000000;stroke-width:1.0;"/><polygon fill="#000000" points="1100.44,86.19,1093.245,86.672,1090.9226,93.4988,1098.1176,93.0169,1100.44,86.19" style="stroke:#000000;stroke-width:1.0;"/><polygon fill="#000000" points="899.6,199.04,909.4393,198.6058,904.0751,196.8098,905.871,191.4456,899.6,199.04" style="stroke:#000000;stroke-width:1.0;"/><text fill="#000000" font-family="sans-serif" font-size="13" lengthAdjust="spacing" textLength="7" x="907.4936" y="191.7211">*</text></g><!--link Utilisateur to Membre--><g id="link_Utilisateur_Membre"><path codeLine="119" d="M859.88,307.3 C886.62,332.89 912.825,357.9618 935.575,379.7318 " fill="none" id="Utilisateur-to-Membre" style="stroke:#000000;stroke-width:1.0;"/><polygon fill="#000000" points="939.91,383.88,936.173,374.7676,936.2975,380.4231,930.642,380.5476,939.91,383.88" style="stroke:#000000;stroke-width:1.0;"/><text fill="#000000" font-family="sans-serif" font-size="13" lengthAdjust="spacing" textLength="47" x="909" y="350.0669">devenir</text><text fill="#000000" font-family="sans-serif" font-size="13" lengthAdjust="spacing" textLength="8" x="858.3411" y="326.9953">1</text><text fill="#000000" font-family="sans-serif" font-size="13" lengthAdjust="spacing" textLength="7" x="925.5095" y="372.8752">*</text></g><!--link R?seau to Membre--><g id="link_R&#233;seau_Membre"><path codeLine="120" d="M1085.17,298.61 C1059.28,326.06 1031.7468,355.2651 1008.8468,379.5451 " fill="none" id="R&#233;seau-to-Membre" style="stroke:#000000;stroke-width:1.0;"/><polygon fill="#000000" points="1004.73,383.91,1013.8151,380.1072,1008.1607,380.2726,1007.9953,374.6182,1004.73,383.91" style="stroke:#000000;stroke-width:1.0;"/><text fill="#000000" font-family="sans-serif" font-size="13" lengthAdjust="spacing" textLength="52" x="1049" y="350.0669">contenir</text><text fill="#000000" font-family="sans-serif" font-size="13" lengthAdjust="spacing" textLength="8" x="1069.8512" y="319.0391">1</text><text fill="#000000" font-family="sans-serif" font-size="13" lengthAdjust="spacing" textLength="23" x="985.5159" y="372.9111">1..*</text></g><!--link Membre to Message--><g id="link_Membre_Message"><path codeLine="121" d="M990.37,451.24 C1001.44,473.38 1013.5767,497.6534 1026.0167,522.5334 " fill="none" id="Membre-to-Message" style="stroke:#000000;stroke-width:1.0;"/><polygon fill="#000000" points="1028.7,527.9,1028.2528,518.0613,1026.4639,523.4279,1021.0974,521.639,1028.7,527.9" style="stroke:#000000;stroke-width:1.0;"/><text fill="#000000" font-family="sans-serif" font-size="13" lengthAdjust="spacing" textLength="41" x="1015" y="494.0669">Poster</text><text fill="#000000" font-family="sans-serif" font-size="13" lengthAdjust="spacing" textLength="8" x="984.6507" y="470.9328">1</text><text fill="#000000" font-family="sans-serif" font-size="13" lengthAdjust="spacing" textLength="7" x="1017.7906" y="516.9125">*</text></g><!--reverse link MonConsommateur to Utilisateur--><g id="link_MonConsommateur_Utilisateur"><path codeLine="122" d="M653.4976,114.0592 C680.5276,138.7792 709.15,164.94 737.42,190.79 " fill="none" id="MonConsommateur-backto-Utilisateur" style="stroke:#000000;stroke-width:1.0;"/><polygon fill="#000000" points="649.07,110.01,653.0119,119.0356,652.7597,113.3844,658.4109,113.1321,649.07,110.01" style="stroke:#000000;stroke-width:1.0;"/><text fill="#000000" font-family="sans-serif" font-size="13" lengthAdjust="spacing" textLength="8" x="648.2772" y="130.4244">1</text><text fill="#000000" font-family="sans-serif" font-size="13" lengthAdjust="spacing" textLength="8" x="721.3056" y="179.8699">1</text></g><!--link R?seau to Message--><g id="link_R&#233;seau_Message"><path codeLine="123" d="M1122.53,310.6287 C1116.42,351.5987 1108.12,399.65 1095,451 C1088.43,476.71 1081.2314,499.1101 1073.1214,522.1601 " fill="none" id="R&#233;seau-Message" style="stroke:#000000;stroke-width:1.0;"/><polygon fill="#000000" points="1124.3,298.76,1119.4587,304.1044,1122.53,310.6287,1127.3712,305.2844,1124.3,298.76" style="stroke:#000000;stroke-width:1.0;"/><polygon fill="#000000" points="1071.13,527.82,1077.8904,520.6578,1072.7895,523.1034,1070.3438,518.0026,1071.13,527.82" style="stroke:#000000;stroke-width:1.0;"/><text fill="#000000" font-family="sans-serif" font-size="13" lengthAdjust="spacing" textLength="7" x="1066.1873" y="516.8212">*</text></g><!--link MiniSocs to R?seau--><g id="link_MiniSocs_R&#233;seau"><path codeLine="124" d="M1131,98.27 C1131,127 1131,157.07 1131,193.36 " fill="none" id="MiniSocs-R&#233;seau" style="stroke:#000000;stroke-width:1.0;"/><polygon fill="#000000" points="1131,86.27,1127,92.27,1131,98.27,1135,92.27,1131,86.27" style="stroke:#000000;stroke-width:1.0;"/><polygon fill="#000000" points="1131,199.36,1135,190.36,1131,194.36,1127,190.36,1131,199.36" style="stroke:#000000;stroke-width:1.0;"/><text fill="#000000" font-family="sans-serif" font-size="13" lengthAdjust="spacing" textLength="7" x="1123.5078" y="188.3669">*</text></g><!--link BufferedSubscription to Subscription--><g id="link_BufferedSubscription_Subscription"><path codeLine="125" d="M405.71,249 C417.34,249 410.96,249 422.59,249 " fill="none" id="BufferedSubscription-to-Subscription" style="stroke:#000000;stroke-width:1.0;"/><polygon fill="none" points="440.59,249,422.59,243,422.59,255,440.59,249" style="stroke:#000000;stroke-width:1.0;"/></g><!--link MonConsommateur to Subscriber--><g id="link_MonConsommateur_Subscriber"><path codeLine="126" d="M701.08,60.5 C712.77,60.5 706.45,60.5 718.14,60.5 " fill="none" id="MonConsommateur-to-Subscriber" style="stroke:#000000;stroke-width:1.0;"/><polygon fill="none" points="736.14,60.5,718.14,54.5,718.14,66.5,736.14,60.5" style="stroke:#000000;stroke-width:1.0;"/></g><!--link SubmissionPublisher to Publisher--><g id="link_SubmissionPublisher_Publisher"><path codeLine="127" d="M157.15,60.5 C168.67,60.5 162.18,60.5 173.7,60.5 " fill="none" id="SubmissionPublisher-to-Publisher" style="stroke:#000000;stroke-width:1.0;"/><polygon fill="none" points="191.7,60.5,173.7,54.5,173.7,66.5,191.7,60.5" style="stroke:#000000;stroke-width:1.0;"/></g><!--reverse link SubmissionPublisher to BufferedSubscription--><g id="link_SubmissionPublisher_BufferedSubscription"><path codeLine="129" d="M129.5304,97.2428 C176.2004,132.3428 245.39,184.37 292.07,219.47 " fill="none" id="SubmissionPublisher-backto-BufferedSubscription" style="stroke:#000000;stroke-width:1.0;"/><polygon fill="#000000" points="119.94,90.03,122.3309,96.8332,129.5304,97.2428,127.1395,90.4396,119.94,90.03" style="stroke:#000000;stroke-width:1.0;"/><text fill="#000000" font-family="sans-serif" font-size="13" lengthAdjust="spacing" textLength="54" x="215" y="157.0669">contains</text><text fill="#000000" font-family="sans-serif" font-size="13" lengthAdjust="spacing" textLength="8" x="118.9401" y="109.7899">1</text><text fill="#000000" font-family="sans-serif" font-size="13" lengthAdjust="spacing" textLength="7" x="276.0072" y="208.4955">*</text></g><!--link MonConsommateur to BufferedSubscription--><g id="link_MonConsommateur_BufferedSubscription"><path codeLine="130" d="M526.81,110.01 C477.24,144.77 412.18,190.38 370.71,219.45 " fill="none" id="MonConsommateur-BufferedSubscription" style="stroke:#000000;stroke-width:1.0;"/><text fill="#000000" font-family="sans-serif" font-size="13" lengthAdjust="spacing" textLength="85" x="472" y="157.0669">est attach&#233; &#224;</text><text fill="#000000" font-family="sans-serif" font-size="13" lengthAdjust="spacing" textLength="8" x="508.0602" y="130.4244">1</text><text fill="#000000" font-family="sans-serif" font-size="13" lengthAdjust="spacing" textLength="8" x="370.7403" y="208.4712">1</text></g><!--SRC=[VLRDJXin4BxlKuou9A44YMk4aCAVX4GW9T0UaUET91PhE_Y75hLz0DwYLvuZBzQnlRlP3KjpYJt-PkQRtwHtBjZIC2aHSWHUC6lHGdzQCEKU9jU3NfRrphHQYAKtp0cjWA-OSGYaj5w9Pu-zR2L85UNQlO94jzAvJI8k32ymiqz2hHdvIERXLmPmolZJqcYlyZDTQ0FVLy8XoSV6w1z9T5eG9a2roT4qPNy2fyJq03RloilDUo97TtJyi9SbJnEXn4ppv788IiiHp9mHQaas4kJ1YK9Ovj2R4hMsw7EjNYNMu5tb23FaUKV6jJT6OD4IecFkJ5DsoDxchRxK32OevmPRpXzbb7qmKq9BE-bMsxdRl5jaVXlhOoaPsRQLHrFAevKILCQaSyz3BYPeBLlYXHexXye5dpC_by9QolBKpobdApJTIbDj_wC0q8WyuXDZaLVN4Mm9drDbI5lmr7iZkDQS5K5wBoIMIIT-odz85YKnsXkLoOgNq3kP80MpO1oX9XOv07m1w-UM6p77VdqoAPRoCjW2fN3zDJrE1y7irkeMN9lLQhPhU5r6D6jS1pNy1d_MnYlP1Gs7wJiItgzeJDYymErZwAe27VQxoIHl5Hs3DBZMzOF_GgjbPOOpnR589bADEehOp5Kx1Kdbr2yMQ33lz9phs_3QK4gVf7gZdLXKnOvjKLONHlNSLiqJGbPMIzaSNf7NxGDHOBN_BDdftT7cmAK8RNT1VJAhxl6LF5MT4_gDC5VAEbgD49bJBsT4JZRd6ewFW-Za938QdzrVNTBt-UPj5ixVDczXfLtVVdsWqv-6TZM-BVLBDBJRw73hNz2ubaAv35huSYNGGUTn9r9cAgLMTD3I4vAyv89HMF3igGQvG4NdARFd66iImstwJgFQD7A72sy3sJ7dk7RXTA60fVrH5hetjbPpqTxLzPRU7mvFO6z_hxcKi-Q2tZlQ8qX0r9imnnTKmcHL-WW2qSpHuM4Jb_g8WAManaLGYWP2JuRbHQYTxYBuyN0Ob9fygFwLt_qTOnrHLPksSpw6lq_QpRdBe06WnP9rpMM0R5Tj9oH4G8GYdquUALDCADkL0mYgHv-gqae91MTyjNc7pTzOS0zpj5ge0s3qdy32cduZeK3wjYAeAPJK8Bti7m00]--></g></svg>